<svg width="220" height="344" viewBox="0 0 220 344" fill="none" xmlns="http://www.w3.org/2000/svg">
<rect x="0.5" y="0.5" width="219" height="343" rx="7.5" fill="url(#paint0_linear_2_1486)"/>
<path d="M50.356 187.553C50.356 187.799 49.8468 188.017 49.0859 188.132C48.8984 188.162 48.7251 188.249 48.5909 188.382C48.4568 188.515 48.3685 188.686 48.339 188.872C48.2193 189.626 48.003 190.13 47.7543 190.13C47.5057 190.13 47.2894 189.626 47.1697 188.872C47.1403 188.686 47.0521 188.515 46.9179 188.382C46.7837 188.249 46.6104 188.161 46.4228 188.132C45.6614 188.014 45.1511 187.799 45.1511 187.553C45.1511 187.307 45.6608 187.089 46.4218 186.973C46.6096 186.944 46.7832 186.857 46.9176 186.724C47.0521 186.591 47.1404 186.419 47.1697 186.233C47.2894 185.479 47.5057 184.974 47.7543 184.974C48.003 184.974 48.2193 185.479 48.339 186.233C48.3679 186.419 48.456 186.592 48.5904 186.725C48.7249 186.859 48.8988 186.947 49.0869 186.976C49.8468 187.091 50.356 187.306 50.356 187.553Z" fill="white"/>
<path d="M164.507 148.119C164.447 148.387 163.84 148.499 162.982 148.447C162.77 148.434 162.56 148.488 162.382 148.601C162.203 148.713 162.065 148.879 161.988 149.075C161.676 149.868 161.315 150.366 161.045 150.307C160.774 150.248 160.661 149.646 160.714 148.796C160.727 148.586 160.672 148.378 160.558 148.201C160.444 148.024 160.277 147.888 160.08 147.811C159.279 147.502 158.774 147.145 158.831 146.876C158.889 146.608 159.5 146.494 160.358 146.547C160.57 146.56 160.78 146.507 160.959 146.394C161.138 146.281 161.276 146.115 161.353 145.919C161.665 145.125 162.026 144.627 162.296 144.687C162.567 144.746 162.681 145.348 162.627 146.199C162.614 146.408 162.669 146.616 162.783 146.794C162.897 146.971 163.065 147.107 163.262 147.184C164.065 147.493 164.567 147.849 164.507 148.119Z" fill="white"/>
<path d="M182 57.015C182 57.3386 181.33 57.6204 180.33 57.776C180.084 57.8144 179.856 57.9293 179.679 58.1041C179.503 58.2789 179.387 58.5046 179.348 58.7489C179.192 59.7397 178.906 60.4034 178.579 60.4034C178.252 60.4034 177.967 59.7397 177.811 58.7489C177.772 58.5047 177.656 58.279 177.479 58.1042C177.303 57.9295 177.075 57.8146 176.828 57.776C175.827 57.6214 175.156 57.3386 175.156 57.015C175.156 56.6914 175.824 56.4049 176.825 56.2503C177.072 56.2118 177.3 56.0969 177.477 55.9221C177.653 55.7472 177.77 55.5213 177.809 55.2769C177.965 54.285 178.25 53.6213 178.577 53.6213C178.904 53.6213 179.189 54.285 179.346 55.2769C179.384 55.5213 179.501 55.7472 179.677 55.9221C179.854 56.097 180.082 56.2119 180.329 56.2503C181.328 56.4049 182 56.6893 182 57.015Z" fill="white"/>
<path d="M159.931 105.986C160.306 105.615 160.306 105.013 159.931 104.641C159.556 104.27 158.948 104.27 158.573 104.641C158.198 105.013 158.198 105.615 158.573 105.986C158.948 106.358 159.556 106.358 159.931 105.986Z" fill="white"/>
<path d="M164.474 171.788C164.524 171.301 164.166 170.865 163.673 170.816C163.181 170.766 162.742 171.121 162.692 171.609C162.642 172.096 163 172.532 163.492 172.581C163.985 172.631 164.424 172.276 164.474 171.788Z" fill="white"/>
<path d="M134.748 168.795C135.356 168.638 135.72 168.023 135.561 167.421C135.403 166.818 134.782 166.458 134.174 166.615C133.566 166.772 133.202 167.387 133.36 167.99C133.519 168.592 134.14 168.953 134.748 168.795Z" fill="white"/>
<path d="M47.0309 80.1461C47.2264 79.4308 46.7995 78.694 46.0775 78.5003C45.3555 78.3066 44.6117 78.7295 44.4162 79.4448C44.2207 80.1601 44.6476 80.8969 45.3696 81.0906C46.0916 81.2842 46.8354 80.8614 47.0309 80.1461Z" fill="white"/>
<path d="M163.985 39.6213C164.359 39.2499 164.359 38.6477 163.985 38.2763C163.61 37.9049 163.002 37.9049 162.627 38.2763C162.252 38.6477 162.252 39.2499 162.627 39.6214C163.002 39.9928 163.61 39.9928 163.985 39.6213Z" fill="white"/>
<path d="M69.2057 43.6771C69.9459 43.5703 70.4587 42.8894 70.351 42.156C70.2432 41.4227 69.5558 40.9148 68.8156 41.0215C68.0754 41.1282 67.5627 41.8092 67.6704 42.5425C67.7781 43.2758 68.4655 43.7838 69.2057 43.6771Z" fill="white"/>
<path d="M39.7327 179.218C40.3279 179.218 40.8104 178.74 40.8104 178.15C40.8104 177.561 40.3279 177.083 39.7327 177.083C39.1375 177.083 38.655 177.561 38.655 178.15C38.655 178.74 39.1375 179.218 39.7327 179.218Z" fill="white"/>
<path d="M178.66 93.3335C178.933 93.3335 179.154 93.1144 179.154 92.8441C179.154 92.5738 178.933 92.3547 178.66 92.3547C178.388 92.3547 178.167 92.5738 178.167 92.8441C178.167 93.1144 178.388 93.3335 178.66 93.3335Z" fill="white"/>
<path d="M137.296 194.787C137.473 194.519 137.397 194.159 137.127 193.984C136.856 193.809 136.493 193.884 136.316 194.152C136.139 194.42 136.215 194.779 136.486 194.955C136.756 195.13 137.119 195.055 137.296 194.787Z" fill="white"/>
<path d="M79.6115 67.1782C79.9239 66.9556 79.9949 66.5243 79.7701 66.2148C79.5454 65.9053 79.11 65.8349 78.7977 66.0574C78.4854 66.28 78.4144 66.7114 78.6391 67.0209C78.8638 67.3303 79.2992 67.4008 79.6115 67.1782Z" fill="white"/>
<path d="M55.6291 95.4056C55.636 95.5419 55.602 95.6772 55.5313 95.7943C55.4606 95.9114 55.3565 96.0052 55.2321 96.0637C55.1076 96.1222 54.9685 96.1428 54.8322 96.1229C54.6959 96.1031 54.5687 96.0437 54.4665 95.9522C54.3643 95.8607 54.2918 95.7412 54.2582 95.6089C54.2245 95.4766 54.2312 95.3373 54.2774 95.2088C54.3237 95.0803 54.4073 94.9682 54.5178 94.8867C54.6283 94.8053 54.7607 94.7581 54.8983 94.7512C54.9897 94.7467 55.081 94.76 55.1672 94.7904C55.2534 94.8208 55.3327 94.8677 55.4005 94.9285C55.4684 94.9892 55.5235 95.0627 55.5627 95.1445C55.6019 95.2264 55.6245 95.3151 55.6291 95.4056Z" fill="white"/>
<path d="M49.8704 141.592C49.8703 141.701 49.8376 141.807 49.7766 141.898C49.7156 141.988 49.6289 142.058 49.5275 142.1C49.4261 142.141 49.3146 142.152 49.2071 142.131C49.0995 142.11 49.0008 142.057 48.9233 141.98C48.8459 141.903 48.7932 141.805 48.772 141.698C48.7507 141.592 48.7619 141.481 48.804 141.381C48.8462 141.28 48.9174 141.195 49.0087 141.134C49.1 141.074 49.2073 141.042 49.317 141.042C49.4639 141.043 49.6046 141.101 49.7084 141.204C49.8121 141.307 49.8704 141.447 49.8704 141.592Z" fill="white"/>
<path d="M40.2899 132.98C40.7722 132.593 40.846 131.891 40.4548 131.413C40.0635 130.935 39.3553 130.862 38.873 131.25C38.3907 131.637 38.3169 132.339 38.7082 132.817C39.0995 133.295 39.8076 133.368 40.2899 132.98Z" fill="white"/>
<path d="M129.39 117.959C129.252 117.959 129.12 117.905 129.022 117.808C128.925 117.711 128.87 117.58 128.87 117.444V95.4294C128.87 95.2927 128.925 95.1616 129.022 95.065C129.12 94.9684 129.252 94.9141 129.39 94.9141C129.528 94.9141 129.66 94.9684 129.758 95.065C129.855 95.1616 129.91 95.2927 129.91 95.4294V117.444C129.91 117.58 129.855 117.711 129.758 117.808C129.66 117.905 129.528 117.959 129.39 117.959Z" fill="#371A45"/>
<path d="M127.284 117.041C127.161 117.041 127.042 116.998 126.948 116.918C126.854 116.839 126.791 116.73 126.771 116.609L121.429 84.5076C121.406 84.3727 121.439 84.2345 121.519 84.1234C121.6 84.0123 121.721 83.9375 121.857 83.9152C121.994 83.893 122.133 83.9253 122.245 84.005C122.357 84.0847 122.433 84.2052 122.455 84.3401L127.797 116.442C127.82 116.577 127.787 116.715 127.707 116.826C127.627 116.937 127.505 117.012 127.369 117.034C127.341 117.039 127.313 117.041 127.284 117.041Z" fill="#371A45"/>
<path d="M130.809 119.301C130.777 119.301 130.745 119.298 130.714 119.292C130.578 119.267 130.458 119.189 130.38 119.077C130.302 118.964 130.272 118.825 130.298 118.691L137.626 79.7361C137.638 79.6692 137.664 79.6054 137.701 79.5483C137.738 79.4912 137.786 79.442 137.843 79.4034C137.899 79.3648 137.963 79.3376 138.03 79.3235C138.097 79.3094 138.166 79.3085 138.233 79.321C138.301 79.3334 138.365 79.359 138.423 79.3961C138.48 79.4333 138.529 79.4814 138.568 79.5375C138.607 79.5937 138.634 79.6568 138.647 79.7234C138.661 79.7899 138.662 79.8585 138.649 79.9252L131.32 118.88C131.298 118.998 131.235 119.105 131.141 119.182C131.048 119.258 130.931 119.3 130.809 119.301Z" fill="#371A45"/>
<path d="M87.5526 144.586L87.3913 147.935L87.3097 149.643L85.8944 179.083C85.8944 179.083 83.8737 178.873 81.1868 178.377C80.6609 178.279 80.1101 178.17 79.5437 178.052C75.3224 177.163 70.2517 175.633 68.5483 173.225C65.9996 169.625 67.4367 153.699 70.8259 147.719C72.3785 144.977 78.6433 144.449 83.0488 144.432C83.5414 144.429 84.011 144.432 84.4474 144.442C86.2887 144.48 87.5526 144.586 87.5526 144.586Z" fill="white"/>
<g opacity="0.35">
<path opacity="0.35" d="M87.3895 147.937L87.3078 149.645L86.1843 173.021L85.8925 179.085L85.7703 179.072L85.6918 179.062L85.6179 179.054C85.5981 179.054 85.5784 179.049 85.5586 179.047C85.5513 179.047 85.542 179.047 85.5347 179.044C85.4983 179.04 85.4577 179.036 85.4156 179.029C85.4058 179.029 85.3961 179.028 85.3865 179.026L85.2762 179.013C85.2242 179.007 85.169 178.999 85.1118 178.992C85.0707 178.986 85.0271 178.981 84.9834 178.976L84.8461 178.958C84.7873 178.95 84.7249 178.941 84.6619 178.934C84.5335 178.916 84.3972 178.898 84.2536 178.877C84.1272 178.86 83.9936 178.841 83.8552 178.82C83.695 178.796 83.5275 178.772 83.3538 178.745C82.712 178.647 81.9776 178.525 81.1849 178.379C81.0289 178.35 80.8728 178.32 80.7168 178.29L80.3797 178.225C80.1067 178.173 79.8258 178.114 79.5434 178.054C75.3205 177.165 70.2514 175.635 68.5495 173.227C66.4519 170.263 67.0526 158.941 69.2257 151.696C68.226 158.101 68.2728 165.08 69.854 167.314C70.6342 168.418 72.2382 169.342 74.1606 170.106C74.9798 170.431 75.8313 169.73 75.683 168.869C75.683 168.862 75.6804 168.855 75.6794 168.849C75.4136 167.269 75.3392 165.485 75.5691 163.422C76.0611 159 77.4025 152.709 82.8233 148.095C82.9492 147.985 84.9594 147.955 87.3895 147.937Z" fill="#371A45"/>
</g>
<path d="M86.685 179.997L85.8086 179.906C85.211 179.844 71.1453 178.336 67.8643 173.701C65.9321 170.97 66.4303 163.514 66.6295 161.294C67.0332 156.782 68.1566 150.74 70.0972 147.317C72.7426 142.65 86.1061 143.636 87.6212 143.762L88.4207 143.829L86.685 179.997ZM83.3172 145.25C78.7604 145.25 72.871 145.797 71.5515 148.125C68.1057 154.205 67.0618 169.688 69.2302 172.755C71.4313 175.867 80.7275 177.617 85.1059 178.166L86.6824 145.352C85.7483 145.29 84.5837 145.25 83.3172 145.25Z" fill="#371A45"/>
<path d="M70.0698 161.482L75.837 162.453C76.0874 162.495 76.3167 162.617 76.4888 162.802C76.6609 162.987 76.7661 163.224 76.7878 163.474C76.9511 165.362 77.0998 169.742 75.1421 171.001C73.5172 172.047 71.0742 171.679 69.7489 170.339C68.2671 168.839 68.5115 164.581 68.7362 162.482C68.7524 162.327 68.8005 162.178 68.8774 162.042C68.9544 161.907 69.0587 161.789 69.1838 161.695C69.3088 161.601 69.452 161.534 69.6044 161.497C69.7569 161.46 69.9153 161.455 70.0698 161.482Z" fill="white"/>
<g opacity="0.35">
<path opacity="0.35" d="M76.7882 163.475C76.952 165.362 77.1002 169.742 75.142 171.001C73.5166 172.047 71.0746 171.679 69.7488 170.338C68.8381 169.415 68.5796 167.45 68.5681 165.585C68.7424 166.532 69.082 167.32 69.5465 167.859C72.2074 170.951 74.7071 167.829 74.7071 167.829C74.7071 167.829 75.0099 168.671 75.3079 168.745C76.5562 169.054 76.6633 165.11 76.6722 163.068C76.7368 163.195 76.7762 163.333 76.7882 163.475Z" fill="#371A45"/>
</g>
<path d="M72.9507 172.429C71.5552 172.429 70.1326 171.906 69.1538 170.916C67.5414 169.287 67.5877 165.383 67.9055 162.395C67.934 162.128 68.0174 161.87 68.1504 161.637C68.2835 161.404 68.4633 161.2 68.6789 161.038C68.8945 160.876 69.1413 160.76 69.404 160.696C69.6668 160.633 69.9399 160.623 70.2065 160.668L75.9736 161.639C76.4057 161.712 76.8012 161.925 77.0981 162.244C77.3951 162.563 77.5767 162.971 77.6146 163.404C77.8284 165.877 77.8497 170.24 75.5924 171.693C74.8247 172.188 73.8937 172.429 72.9507 172.429ZM69.8762 162.29C69.808 162.29 69.7418 162.313 69.6874 162.353C69.6532 162.379 69.6247 162.411 69.6036 162.449C69.5826 162.486 69.5695 162.527 69.5652 162.569C69.1829 166.133 69.4815 168.889 70.3454 169.762C71.4215 170.848 73.45 171.105 74.6889 170.309C75.7729 169.612 76.2592 167.02 75.9586 163.545C75.9527 163.476 75.9239 163.412 75.8768 163.361C75.8297 163.311 75.767 163.277 75.6985 163.266L69.9308 162.294C69.9128 162.291 69.8945 162.29 69.8762 162.29Z" fill="#371A45"/>
<path d="M71.9978 171.062C72.053 171.044 72.1067 171.023 72.1586 170.997C72.2205 170.967 72.2834 170.936 72.3453 170.899C72.4723 170.826 72.594 170.745 72.7094 170.655C72.9502 170.472 73.169 170.261 73.3616 170.029C73.7647 169.544 74.0799 168.994 74.2932 168.403C74.5142 167.804 74.6536 167.167 74.7613 166.515C74.8591 165.868 74.9459 165.209 74.87 164.551C75.0323 165.197 75.0328 165.874 75.0203 166.539C74.9995 167.204 74.9444 167.879 74.793 168.549C74.6418 169.233 74.372 169.886 73.9956 170.479C73.802 170.786 73.5739 171.071 73.3158 171.327C73.1841 171.459 73.0434 171.582 72.8945 171.695C72.8207 171.754 72.7385 171.809 72.6589 171.862C72.5679 171.922 72.4725 171.975 72.3734 172.021L72.3292 172.041C72.2666 172.07 72.1989 172.086 72.13 172.089C72.061 172.092 71.9921 172.082 71.9273 172.058C71.8625 172.035 71.8029 171.999 71.7521 171.953C71.7012 171.907 71.66 171.851 71.6309 171.789C71.6018 171.727 71.5852 171.66 71.5823 171.592C71.5793 171.523 71.5899 171.455 71.6136 171.391C71.6372 171.327 71.6734 171.268 71.7201 171.217C71.7667 171.167 71.8229 171.126 71.8855 171.097C71.9216 171.081 71.9592 171.07 71.9978 171.062Z" fill="#371A45"/>
<path d="M79.5624 148.511C78.8649 148.408 78.1533 148.321 77.4475 148.246C76.7417 148.17 76.0328 148.107 75.3275 148.064C74.6222 148.021 73.9175 147.99 73.222 147.996C72.5266 148.002 71.837 148.031 71.1977 148.131C71.0896 148.148 70.9792 148.144 70.8727 148.119C70.7663 148.093 70.666 148.047 70.5774 147.983C70.4889 147.92 70.4139 147.839 70.3568 147.747C70.2996 147.654 70.2614 147.552 70.2443 147.444C70.2273 147.337 70.2316 147.228 70.2572 147.122C70.2829 147.017 70.3292 146.918 70.3935 146.83C70.4579 146.742 70.5391 146.668 70.6325 146.611C70.7258 146.555 70.8295 146.517 70.9377 146.5C70.9637 146.496 70.9897 146.493 71.0167 146.491C71.8052 146.443 72.5506 146.485 73.2897 146.547C74.0288 146.609 74.7517 146.709 75.4742 146.821C76.1966 146.933 76.9071 147.064 77.6171 147.207C78.3271 147.35 79.0308 147.503 79.7402 147.676C79.848 147.702 79.9417 147.768 80.0016 147.86C80.0616 147.952 80.0832 148.064 80.062 148.172C80.0408 148.279 79.9783 148.375 79.8878 148.438C79.7972 148.501 79.6854 148.528 79.5759 148.511L79.5624 148.511Z" fill="#371A45"/>
<path d="M133.971 50.9527C133.947 51.0069 133.928 51.0634 133.915 51.1214L133.971 50.9527Z" fill="#D66B09"/>
<path d="M135.02 69.025L137.326 71.8297C137.477 72.0122 137.576 72.2307 137.614 72.4633C137.653 72.6959 137.628 72.9343 137.544 73.1547C137.46 73.375 137.318 73.5694 137.134 73.7185C136.95 73.8675 136.729 73.9658 136.494 74.0036L132.889 74.5807C132.654 74.6183 132.413 74.594 132.191 74.5102C131.968 74.4263 131.772 74.286 131.622 74.1032C131.471 73.9204 131.372 73.7016 131.334 73.4689C131.297 73.2361 131.321 72.9976 131.406 72.7773L132.706 69.3955C132.791 69.1762 132.933 68.9828 133.117 68.8347C133.301 68.6866 133.521 68.589 133.755 68.5515C133.99 68.514 134.23 68.538 134.451 68.6211C134.673 68.7042 134.869 68.8435 135.02 69.025Z" fill="#E25A5A"/>
<g opacity="0.35">
<path opacity="0.35" d="M135.124 68.9941L137.449 71.7848C137.6 71.9667 137.701 72.1848 137.74 72.4173C137.779 72.6498 137.756 72.8885 137.673 73.1093C137.59 73.3302 137.449 73.5254 137.266 73.6755C137.082 73.8255 136.862 73.925 136.627 73.964L133.026 74.5627C132.791 74.6018 132.55 74.5789 132.328 74.4965C132.105 74.414 131.907 74.2749 131.756 74.0931C131.605 73.9112 131.504 73.6931 131.465 73.4606C131.425 73.228 131.448 72.9894 131.532 72.7685L132.809 69.379C132.892 69.1583 133.032 68.9631 133.216 68.8131C133.4 68.6632 133.62 68.5637 133.854 68.5247C134.089 68.4857 134.33 68.5085 134.553 68.5909C134.776 68.6733 134.973 68.8124 135.124 68.9941Z" fill="#371A45"/>
</g>
<path d="M132.66 75.4897C132.296 75.4877 131.937 75.3984 131.615 75.2293C131.293 75.0603 131.018 74.8165 130.811 74.5188C130.605 74.2212 130.475 73.8785 130.432 73.5201C130.388 73.1618 130.433 72.7983 130.563 72.4609L131.863 69.0791C132.004 68.7126 132.239 68.3891 132.546 68.1413C132.852 67.8935 133.219 67.73 133.61 67.6674C134.001 67.6047 134.401 67.645 134.771 67.7843C135.141 67.9236 135.468 68.1569 135.718 68.4608L138.025 71.2654C138.275 71.5693 138.44 71.9331 138.503 72.3202C138.566 72.7072 138.525 73.1039 138.385 73.4704C138.244 73.8368 138.008 74.1601 137.702 74.4078C137.395 74.6554 137.027 74.8187 136.637 74.8811L133.032 75.4583C132.909 75.4787 132.785 75.4893 132.66 75.4897ZM133.971 69.4213C133.945 69.4211 133.92 69.423 133.895 69.4269C133.816 69.4389 133.741 69.4716 133.679 69.5218C133.617 69.572 133.569 69.6378 133.542 69.7124L132.244 73.0942C132.215 73.1683 132.207 73.2487 132.219 73.3271C132.232 73.4056 132.265 73.4793 132.316 73.5409C132.367 73.6025 132.433 73.6497 132.508 73.6779C132.583 73.706 132.664 73.714 132.743 73.7012L136.348 73.124C136.427 73.1115 136.502 73.0785 136.564 73.0284C136.626 72.9783 136.674 72.9129 136.702 72.8387C136.731 72.7646 136.739 72.6843 136.726 72.6059C136.713 72.5275 136.68 72.4539 136.629 72.3924L134.322 69.5877C134.28 69.5352 134.227 69.4929 134.166 69.464C134.105 69.4352 134.038 69.4206 133.971 69.4213Z" fill="#371A45"/>
<path d="M112.831 50.9978C115.001 61.1142 127.688 71.5573 134.141 70.199C140.594 68.8408 147.895 54.1868 145.724 44.0709C143.553 33.955 134.431 27.3048 125.347 29.2181C116.264 31.1313 110.66 40.8819 112.831 50.9978Z" fill="#00D7ED"/>
<g opacity="0.7">
<path opacity="0.7" d="M112.831 50.9983C112.838 51.0282 112.844 51.0581 112.851 51.0885C111.838 41.7738 117.272 33.231 125.712 31.4564C134.706 29.5628 143.74 36.0635 146.022 46.013C145.96 45.3616 145.86 44.7142 145.724 44.074C143.553 33.9576 134.431 27.3074 125.347 29.2201C116.264 31.1328 110.66 40.8819 112.831 50.9983Z" fill="white"/>
</g>
<g opacity="0.35">
<path opacity="0.35" d="M112.831 50.9976C115.002 61.114 127.688 71.5571 134.141 70.1988C140.593 68.8406 147.895 54.1856 145.724 44.0707C145.704 43.9769 145.684 43.8852 145.663 43.794C145.503 51.9034 138.732 61.94 132.991 63.1488C126.538 64.5081 114.31 56.1988 112.509 47.8059C112.457 47.5591 112.41 47.3108 112.37 47.065C112.398 48.3873 112.552 49.7041 112.831 50.9976Z" fill="#371A45"/>
</g>
<path d="M132.969 71.2036C129.71 71.2036 125.385 69.1425 121.286 65.5696C116.473 61.3732 112.984 55.9947 111.951 51.1825C109.681 40.6024 115.606 30.3582 125.16 28.346C134.713 26.3338 144.333 33.3045 146.603 43.8837C147.636 48.6958 146.655 55.0136 143.984 60.7883C141.374 66.4249 137.674 70.3637 134.327 71.0686C133.881 71.1604 133.426 71.2056 132.969 71.2036ZM128.479 29.781C127.489 29.7818 126.501 29.8854 125.533 30.0902C116.951 31.8983 111.645 41.1949 113.709 50.8141C115.657 59.8902 126.687 69.4326 132.895 69.4331C133.25 69.4354 133.605 69.4009 133.953 69.3301C139.868 68.0841 146.908 53.8764 144.844 44.2583C143.017 35.7392 136.018 29.781 128.479 29.781Z" fill="#371A45"/>
<g opacity="0.5">
<path opacity="0.5" d="M126.753 34.163C122.275 34.5602 119.414 36.3786 117.474 39.4023C115.417 42.6078 116.516 45.2275 119.004 44.8292C121.493 44.4309 121.865 40.4565 127.424 37.7833C131.015 36.055 130.287 33.8491 126.753 34.163Z" fill="white"/>
</g>
<path d="M121.167 67.8662C121.142 67.9203 121.123 67.9768 121.11 68.0348L121.167 67.8662Z" fill="#D66B09"/>
<path d="M100.029 67.9105C102.199 78.0264 114.886 88.47 121.339 87.1112C127.792 85.7525 135.093 71.099 132.923 60.9831C130.752 50.8672 121.627 44.2175 112.543 46.1303C103.46 48.043 97.8564 57.7961 100.029 67.9105Z" fill="#FF2222"/>
<g opacity="0.7">
<path opacity="0.7" d="M100.029 67.9105C100.036 67.9409 100.043 67.9708 100.049 68.0007C99.0372 58.6865 104.47 50.1432 112.91 48.3686C121.904 46.475 130.938 52.9752 133.221 62.9247C133.158 62.2732 133.059 61.6259 132.922 60.9857C130.751 50.8693 121.629 44.2196 112.545 46.1323C103.462 48.045 97.8559 57.7961 100.029 67.9105Z" fill="white"/>
</g>
<g opacity="0.35">
<path opacity="0.35" d="M100.288 65.8494C102.459 75.9658 115.145 86.4089 121.598 85.0511C128.05 83.6934 135.352 69.0374 133.181 58.9225C133.162 58.8292 133.141 58.7375 133.12 58.6458C132.96 66.7557 126.189 76.7918 120.448 78.0011C113.996 79.3599 101.767 71.0521 99.9663 62.6582C99.9143 62.4114 99.8675 62.1631 99.8269 61.9173C99.855 63.2395 100.009 64.556 100.288 65.8494Z" fill="#371A45"/>
</g>
<path d="M120.164 88.1166C116.906 88.1166 112.58 86.0555 108.481 82.4825C103.669 78.2861 100.179 72.9077 99.1461 68.0955C98.0507 62.9896 98.809 57.8075 101.282 53.5034C103.775 49.1658 107.708 46.238 112.355 45.2589C117.002 44.2799 121.797 45.3708 125.856 48.3284C129.882 51.2655 132.703 55.6917 133.799 60.7981C134.831 65.6103 133.851 71.9281 131.178 77.7028C128.568 83.3389 124.869 87.2782 121.523 87.9826C121.076 88.0742 120.621 88.1191 120.164 88.1166ZM115.698 46.6914C114.7 46.6912 113.705 46.7948 112.729 47.0006C108.59 47.8719 105.08 50.4942 102.847 54.384C100.591 58.3078 99.9029 63.0453 100.907 67.7245C102.854 76.8001 113.885 86.3425 120.093 86.3435C120.448 86.3457 120.803 86.3112 121.15 86.2404C127.066 84.9945 134.105 70.7868 132.041 61.1681C131.038 56.4894 128.463 52.4393 124.791 49.7635C122.017 47.7421 118.87 46.6914 115.698 46.6914Z" fill="#371A45"/>
<g opacity="0.5">
<path opacity="0.5" d="M113.948 50.5606C109.47 50.9579 106.609 52.7794 104.67 55.8004C102.612 59.0055 103.712 61.6231 106.2 61.2268C108.688 60.8306 109.061 56.8547 114.619 54.1809C118.211 52.4532 117.482 50.2468 113.948 50.5606Z" fill="white"/>
</g>
<path d="M144.676 68.1831C144.628 68.2186 144.584 68.259 144.545 68.3037L144.676 68.1831Z" fill="#D66B09"/>
<path d="M136.818 84.5261L137.479 88.0815C137.522 88.3133 137.503 88.5523 137.423 88.7744C137.343 88.9965 137.206 89.1939 137.025 89.3467C136.844 89.4996 136.625 89.6025 136.391 89.6451C136.157 89.6878 135.916 89.6687 135.692 89.5897L132.251 88.3778C132.027 88.2988 131.827 88.1628 131.673 87.9834C131.519 87.804 131.415 87.5875 131.372 87.3557C131.329 87.1239 131.348 86.8849 131.428 86.6628C131.507 86.4407 131.645 86.2433 131.826 86.0905L134.606 83.7439C134.787 83.591 135.006 83.4881 135.24 83.4456C135.474 83.4031 135.716 83.4225 135.94 83.5018C136.164 83.5811 136.363 83.7175 136.518 83.8973C136.672 84.0772 136.775 84.294 136.818 84.5261Z" fill="#3BD8E0"/>
<g opacity="0.35">
<path opacity="0.35" d="M136.927 84.5493L137.61 88.1047C137.655 88.3362 137.637 88.5753 137.559 88.7979C137.48 89.0205 137.344 89.2187 137.164 89.3726C136.984 89.5266 136.766 89.6308 136.532 89.6749C136.298 89.719 136.057 89.7013 135.832 89.6237L132.384 88.4324C132.159 88.3549 131.959 88.2202 131.804 88.0417C131.648 87.8632 131.543 87.6473 131.498 87.4157C131.454 87.1841 131.472 86.9449 131.55 86.7223C131.628 86.4997 131.765 86.3015 131.945 86.1477L134.711 83.7846C134.891 83.6307 135.108 83.5264 135.342 83.4823C135.576 83.4382 135.817 83.4557 136.042 83.5332C136.266 83.6107 136.466 83.7454 136.622 83.9237C136.777 84.1021 136.883 84.3178 136.927 84.5493Z" fill="#371A45"/>
</g>
<path d="M136.156 90.5636C135.896 90.5633 135.637 90.5186 135.392 90.4317L131.951 89.2197C131.578 89.0884 131.247 88.8621 130.99 88.5636C130.734 88.2652 130.561 87.9051 130.489 87.5195C130.418 87.1339 130.45 86.7364 130.582 86.367C130.715 85.9976 130.943 85.6692 131.244 85.4149L134.024 83.0689C134.325 82.8146 134.689 82.6433 135.078 82.5723C135.467 82.5013 135.868 82.533 136.241 82.6644C136.614 82.7957 136.946 83.022 137.203 83.3205C137.459 83.619 137.632 83.9792 137.704 84.3648L138.365 87.9228C138.424 88.2444 138.412 88.5749 138.328 88.8913C138.245 89.2076 138.093 89.502 137.882 89.7537C137.672 90.0054 137.408 90.2084 137.11 90.3483C136.811 90.4882 136.486 90.5617 136.156 90.5636ZM135.48 84.3159C135.373 84.3157 135.27 84.3544 135.189 84.4246L132.409 86.7706C132.348 86.822 132.301 86.8887 132.274 86.9638C132.247 87.0389 132.24 87.1197 132.254 87.1982C132.269 87.2767 132.304 87.35 132.356 87.4106C132.409 87.4713 132.476 87.5171 132.552 87.5436L135.994 88.7555C136.069 88.782 136.15 88.7884 136.229 88.774C136.308 88.7596 136.381 88.7249 136.442 88.6734C136.503 88.6219 136.55 88.5555 136.576 88.4807C136.603 88.4059 136.61 88.3255 136.595 88.2474L135.934 84.692C135.92 84.6136 135.886 84.5403 135.834 84.4797C135.782 84.4191 135.714 84.3733 135.638 84.3473C135.588 84.3283 135.535 84.3177 135.481 84.3159H135.48Z" fill="#371A45"/>
<path d="M126.119 58.1475C123.111 68.0506 129.162 83.2523 135.482 85.1362C141.801 87.02 155.314 77.6523 158.323 67.7487C161.332 57.8451 156.56 47.6684 147.668 45.0173C138.776 42.3662 129.128 48.2439 126.119 58.1475Z" fill="#068FFF"/>
<g opacity="0.7">
<path opacity="0.7" d="M126.12 58.1475L126.094 58.2362C129.729 49.5878 138.641 44.6875 146.903 47.151C155.707 49.7789 160.471 59.7805 157.641 69.5913C157.903 68.9906 158.13 68.3755 158.321 67.7492C161.33 57.8477 156.561 47.6684 147.669 45.0173C138.777 42.3662 129.129 48.2439 126.12 58.1475Z" fill="white"/>
</g>
<g opacity="0.35">
<path opacity="0.35" d="M126.119 55.8288C123.111 65.7324 129.163 80.9325 135.478 82.8174C141.794 84.7023 155.313 75.3325 158.321 65.4304C158.348 65.3392 158.375 65.2491 158.401 65.1584C154.323 72.1924 143.514 77.7646 137.893 76.0889C131.577 74.2056 124.89 61.0944 127.387 52.8773C127.46 52.6356 127.543 52.396 127.625 52.1616C127.007 53.3341 126.503 54.562 126.119 55.8288Z" fill="#371A45"/>
</g>
<path d="M137.247 86.261C136.561 86.2687 135.878 86.1771 135.219 85.989C131.942 85.0099 128.585 80.7847 126.455 74.9523C124.274 68.9797 123.825 62.6016 125.259 57.8909C126.778 52.8928 129.959 48.7103 134.217 46.1158C138.508 43.5008 143.378 42.8078 147.927 44.1645C152.477 45.5212 156.15 48.7613 158.273 53.2885C160.378 57.7802 160.701 63.0071 159.182 68.0058C157.75 72.7165 153.825 77.7904 148.675 81.5777C144.594 84.5817 140.424 86.261 137.247 86.261ZM126.98 58.4041C124.119 67.8203 129.948 82.5567 135.738 84.2829C141.529 86.0091 154.599 76.9082 157.46 67.4921C158.852 62.9118 158.561 58.1341 156.641 54.0387C154.739 49.9789 151.46 47.0779 147.409 45.87C143.358 44.6622 139.007 45.2883 135.158 47.6328C131.276 49.9984 128.372 53.8239 126.98 58.4021V58.4041Z" fill="#371A45"/>
<g opacity="0.5">
<path opacity="0.5" d="M146.748 49.5707C142.63 47.7853 139.237 48.0187 136.069 49.7428C132.709 51.5726 132.401 54.3932 134.776 55.23C137.151 56.0668 139.408 52.7603 145.578 53.0659C149.566 53.2617 149.999 50.98 146.748 49.5707Z" fill="white"/>
</g>
<path d="M128.121 132.09C126.443 132.428 125.209 132.209 125.209 132.209C125.164 132.288 125.118 132.369 125.071 132.447C119.568 142.117 114.802 147.676 111.326 150.845C110.789 151.326 110.159 151.694 109.474 151.927C105.261 153.43 98.8582 150.923 98.8582 150.923L99.6071 147.503L101.428 139.169C101.428 139.169 102.37 138.676 103.984 137.52C104.155 137.395 104.335 137.265 104.52 137.127C105.937 136.078 107.771 134.585 109.882 132.558C113.227 129.347 117.268 124.796 121.439 118.546C121.439 118.546 123.167 115.488 127.279 116.523C129.472 117.076 130.612 117.986 130.979 119.226C130.979 119.226 133.048 119 133.106 121.906C133.16 124.374 132.075 131.297 128.121 132.09Z" fill="white"/>
<g opacity="0.35">
<path opacity="0.35" d="M125.069 132.451C119.566 142.119 114.802 147.676 111.326 150.846C107.518 154.317 98.8582 150.925 98.8582 150.925L99.7772 146.723C102.641 147.375 106.202 146.369 109.055 145.095C120.355 140.053 121.315 132.443 121.993 128.637C122.082 129.838 122.718 131.385 125.069 132.451Z" fill="#371A45"/>
</g>
<g opacity="0.35">
<path opacity="0.35" d="M126.497 132.275C126.497 132.275 123.003 132.577 122.18 127.247C122.18 127.247 123.239 128.178 126.297 128.831C129.334 129.479 132.135 127.198 132.135 127.198C132.135 127.198 130.946 132.388 126.497 132.275Z" fill="#371A45"/>
</g>
<path d="M102.081 139.325C101.893 139.326 101.71 139.263 101.562 139.148C101.414 139.032 101.31 138.87 101.268 138.688C101.225 138.507 101.245 138.316 101.326 138.147C101.407 137.979 101.543 137.842 101.712 137.76C101.8 137.717 110.595 133.288 120.73 118.118C121.455 116.865 123.772 114.792 127.488 115.726C129.588 116.254 130.916 117.128 131.545 118.396C132.203 119.723 132.065 121.366 131.101 123.567C130.161 125.719 128.213 126.886 126.565 126.276C125.05 125.717 123.912 123.605 125.264 119.358C125.331 119.149 125.478 118.975 125.674 118.874C125.87 118.773 126.099 118.753 126.309 118.819C126.52 118.885 126.696 119.031 126.797 119.225C126.899 119.42 126.919 119.646 126.853 119.854C125.917 122.785 126.349 124.437 127.145 124.731C127.821 124.981 128.941 124.356 129.572 122.911C130.314 121.211 130.47 119.974 130.048 119.124C129.647 118.316 128.675 117.727 127.076 117.326C123.622 116.457 122.18 118.927 122.166 118.953L122.134 119.004C111.711 134.614 102.819 139.059 102.445 139.24C102.332 139.296 102.207 139.325 102.081 139.325Z" fill="#371A45"/>
<path d="M105.252 155.745C105.05 155.746 104.853 155.674 104.7 155.542C104.547 155.41 104.448 155.227 104.422 155.028C104.395 154.829 104.443 154.627 104.556 154.46C104.67 154.293 104.84 154.173 105.037 154.122C105.112 154.101 113.263 151.601 124.482 131.806L124.772 131.295L125.354 131.398C125.362 131.398 126.471 131.581 127.955 131.283C131.342 130.602 132.324 124.092 132.278 121.925C132.262 121.16 132.083 120.6 131.76 120.308C131.567 120.136 131.315 120.044 131.056 120.05C130.947 120.062 130.838 120.053 130.733 120.022C130.628 119.992 130.531 119.942 130.446 119.874C130.361 119.806 130.291 119.722 130.239 119.627C130.187 119.532 130.155 119.428 130.144 119.32C130.121 119.102 130.186 118.883 130.326 118.712C130.465 118.542 130.667 118.432 130.887 118.409C131.24 118.383 131.594 118.426 131.93 118.537C132.266 118.647 132.576 118.823 132.842 119.053C133.546 119.664 133.915 120.619 133.942 121.89C134.004 124.97 132.666 132.018 128.285 132.898C127.424 133.072 126.543 133.135 125.665 133.085C114.156 153.203 105.82 155.621 105.469 155.715C105.398 155.734 105.326 155.744 105.252 155.745Z" fill="#371A45"/>
<path d="M125.209 133.035C125.171 133.035 125.132 133.032 125.094 133.027C123.625 132.826 122.556 132.18 121.916 131.108C120.891 129.39 121.072 126.707 122.454 123.135C123.797 119.663 125.555 119.532 125.887 119.542L125.842 121.191C125.862 121.193 125.882 121.193 125.902 121.191C125.893 121.191 124.932 121.345 124.01 123.726C122.853 126.718 122.619 129.042 123.351 130.27C123.724 130.896 124.369 131.264 125.323 131.395C125.534 131.421 125.726 131.527 125.861 131.689C125.995 131.851 126.062 132.059 126.048 132.268C126.033 132.478 125.939 132.674 125.783 132.817C125.627 132.96 125.423 133.039 125.21 133.037L125.209 133.035Z" fill="#371A45"/>
<path d="M109.511 175.081C108.65 179.461 106.631 189.719 100.547 195.614C100.547 195.614 101.025 203.488 97.7278 206.321C95.4772 208.255 88.9247 206.876 87.5375 202.46C86.3412 198.651 88.0909 192.779 89.0776 191.024C91.2855 187.104 92.8646 182.134 92.8511 179.894L90.1673 179.767C88.5341 183.981 84.4459 190.223 81.2268 193.067C81.2268 193.067 81.0708 200.133 76.4937 202.984C73.1753 205.052 66.758 203.867 65.5024 198.375C64.6239 194.533 66.9671 189.123 68.3064 187.049C70.427 183.768 74.305 176.044 75.8514 170.266C75.9554 169.869 76.0526 169.48 76.1359 169.103C76.4843 167.523 76.8287 165.913 77.1636 164.327C77.4689 162.874 77.7691 161.441 78.0536 160.067C78.8644 156.16 79.5687 152.74 80.0467 150.756C80.0467 150.756 80.2615 149.339 80.6292 147.416C80.9158 145.925 81.295 144.129 81.7418 142.453C82.5063 139.583 83.466 137.074 84.4823 137.074H101.428C102.409 137.074 103.255 137.238 103.984 137.522C105.493 138.103 106.508 139.183 107.185 140.335C108.416 142.418 108.549 144.733 108.549 144.733C108.789 146.763 109.14 149.213 109.473 151.929C110.314 158.79 111.034 167.35 109.511 175.081Z" fill="white"/>
<g opacity="0.35">
<path opacity="0.35" d="M79.1501 164.555C79.1017 164.783 79.0534 165.011 79.0029 165.24C78.3516 165.019 77.7334 164.711 77.1648 164.327C77.1684 164.311 77.1705 164.296 77.1742 164.281L79.1501 164.555Z" fill="#371A45"/>
</g>
<g opacity="0.35">
<path opacity="0.35" d="M91.2906 190.2C90.3024 191.952 88.5522 197.826 89.7505 201.636C90.809 205.004 94.8686 206.604 97.7344 206.317C95.4875 208.256 88.9282 206.879 87.54 202.459C86.3437 198.65 88.0934 192.778 89.0801 191.023C91.288 187.103 92.8671 182.134 92.8536 179.894L90.1698 179.767C89.9414 180.356 89.6668 180.982 89.349 181.636C89.8171 179.958 89.2757 179.002 88.7098 178.176C88.2365 177.486 88.9776 176.616 89.7443 176.962C90.913 177.49 92.7002 178.02 95.3065 178.17C98.7305 178.367 101.727 177.478 103.416 176.826C104.16 176.539 104.854 177.363 104.425 178.029C102.157 181.553 93.1313 186.927 91.2906 190.2Z" fill="#371A45"/>
</g>
<path d="M80.3181 150.82C79.5546 157.063 78.3505 163.227 76.9857 169.378C76.6284 170.966 76.1249 172.49 75.5694 173.986C75.0139 175.482 74.4038 176.951 73.7573 178.401C73.1108 179.852 72.4242 181.283 71.7043 182.699C70.9845 184.114 70.2293 185.512 69.3893 186.885L68.7755 187.875L68.5014 188.362L68.2413 188.864C67.9048 189.541 67.6042 190.24 67.3327 190.949C67.0612 191.657 66.8365 192.382 66.6383 193.108C66.4504 193.831 66.3102 194.565 66.2186 195.305C66.1468 196.037 66.1182 196.768 66.1973 197.47C66.2857 198.16 66.4573 198.852 66.7522 199.479C67.0438 200.106 67.4421 200.678 67.9298 201.171C68.4243 201.664 68.9987 202.071 69.629 202.375C70.9161 202.995 72.3579 203.23 73.7776 203.05C74.4667 202.966 75.1356 202.763 75.754 202.45C75.904 202.37 76.0495 202.283 76.1899 202.187L76.4089 202.041L76.6169 201.88C76.8955 201.663 77.158 201.426 77.4023 201.171C77.8921 200.642 78.317 200.058 78.6683 199.43C79.0241 198.785 79.3215 198.109 79.5572 197.412C79.7969 196.704 79.9865 195.981 80.1246 195.248C80.1959 194.879 80.2526 194.508 80.2994 194.137C80.3462 193.765 80.38 193.379 80.3925 193.046L80.406 192.685L80.6708 192.447C81.6184 191.597 82.4912 190.613 83.3166 189.591C84.1421 188.569 84.915 187.493 85.6473 186.392C86.3796 185.292 87.0657 184.159 87.6997 183.005C88.3337 181.85 88.9147 180.669 89.386 179.469L89.6049 178.912L90.2031 178.941L92.889 179.067L93.6968 179.105L93.6822 179.887C93.6603 181.017 93.4461 182.01 93.199 183.001C92.9519 183.991 92.6435 184.948 92.3049 185.896C91.6249 187.794 90.7925 189.635 89.8156 191.401C89.4115 192.156 89.0874 193.075 88.8211 193.977C88.5532 194.888 88.3447 195.816 88.197 196.753C88.0457 197.68 87.9697 198.617 87.9697 199.555C87.9764 200.479 88.0737 201.396 88.3338 202.226C88.6018 203.034 89.0685 203.762 89.6918 204.346C90.3206 204.945 91.0961 205.415 91.9283 205.754C92.7602 206.094 93.6444 206.291 94.543 206.337C94.9757 206.36 95.4096 206.334 95.8365 206.26C96.2495 206.188 96.6349 206.054 96.9371 205.867C97.0113 205.822 97.0819 205.773 97.1483 205.718C97.217 205.666 97.2945 205.583 97.3678 205.518C97.5166 205.372 97.6542 205.215 97.7792 205.048C98.0421 204.7 98.2686 204.326 98.4554 203.933C98.8351 203.122 99.106 202.232 99.2954 201.313C99.4846 200.385 99.6107 199.446 99.673 198.501C99.7409 197.555 99.755 196.607 99.7151 195.659L99.6979 195.28L99.9643 195.022C101.489 193.537 102.748 191.771 103.797 189.886C104.846 188 105.692 185.986 106.398 183.924C107.098 181.851 107.681 179.74 108.142 177.602C108.261 177.066 108.374 176.528 108.483 175.988C108.591 175.449 108.704 174.903 108.789 174.37C108.874 173.837 108.98 173.299 109.057 172.761L109.256 171.139C109.472 168.963 109.576 166.777 109.566 164.59C109.553 162.398 109.421 160.203 109.22 158.012L108.578 151.43C108.481 150.328 108.386 149.225 108.329 148.114C108.273 147.004 108.234 145.887 108.277 144.765C108.28 144.699 108.306 144.636 108.351 144.587C108.396 144.538 108.458 144.507 108.524 144.499C108.591 144.491 108.658 144.506 108.713 144.543C108.769 144.58 108.81 144.635 108.828 144.699V144.701C109.137 145.779 109.387 146.861 109.617 147.947C109.848 149.034 110.045 150.13 110.223 151.228C110.572 153.426 110.825 155.644 110.969 157.875C111.113 160.106 111.214 162.34 111.229 164.582C111.239 166.83 111.133 169.076 110.91 171.313L110.702 172.992C110.623 173.55 110.517 174.106 110.425 174.664C110.333 175.221 110.222 175.766 110.113 176.313C110.004 176.86 109.888 177.407 109.767 177.954C109.292 180.152 108.694 182.323 107.974 184.455C107.246 186.589 106.362 188.688 105.253 190.684C104.145 192.681 102.799 194.575 101.127 196.203L101.376 195.564C101.421 196.582 101.406 197.602 101.333 198.619C101.266 199.638 101.129 200.651 100.925 201.652C100.717 202.659 100.416 203.666 99.9596 204.64C99.7238 205.137 99.4374 205.61 99.105 206.049C98.9328 206.277 98.744 206.492 98.5402 206.692C98.4304 206.792 98.3383 206.89 98.212 206.99C98.0876 207.093 97.9558 207.186 97.8177 207.269C97.303 207.579 96.7333 207.789 96.1393 207.887C95.5876 207.984 95.0266 208.019 94.4671 207.99C93.3781 207.936 92.3065 207.698 91.2985 207.287C90.2962 206.877 89.3459 206.308 88.5418 205.541C87.7377 204.775 87.0933 203.808 86.7489 202.727C86.4192 201.675 86.3152 200.615 86.3053 199.574C86.3047 198.545 86.3875 197.517 86.5528 196.501C86.7121 195.495 86.9362 194.5 87.2238 193.522C87.5172 192.54 87.8381 191.588 88.3629 190.602C89.2949 188.916 90.0892 187.158 90.7383 185.346C91.0618 184.44 91.3515 183.523 91.5866 182.601C91.8217 181.68 92.0027 180.737 92.0194 179.898L92.812 180.718L90.1266 180.591L90.9437 180.063C90.433 181.363 89.8229 182.594 89.166 183.795C88.509 184.997 87.7991 186.165 87.0412 187.302C86.2834 188.438 85.4809 189.549 84.6216 190.622C83.7624 191.694 82.8412 192.731 81.7817 193.681L82.06 193.084C82.0434 193.535 82.0049 193.924 81.956 194.339C81.9071 194.753 81.8426 195.152 81.7651 195.555C81.6132 196.364 81.4047 197.163 81.141 197.944C80.8731 198.736 80.5347 199.502 80.1298 200.235C79.712 200.982 79.2056 201.677 78.6215 202.304C78.0161 202.944 77.3142 203.486 76.541 203.912C75.7466 204.317 74.8863 204.58 73.9996 204.689C72.2539 204.912 70.4805 204.623 68.8988 203.858C68.1019 203.472 67.3759 202.957 66.7507 202.334C66.126 201.704 65.6157 200.972 65.2423 200.17C64.8715 199.37 64.6566 198.521 64.5469 197.657C64.4507 196.797 64.486 195.953 64.5682 195.123C64.6684 194.305 64.8228 193.494 65.0306 192.696C65.2402 191.909 65.4897 191.132 65.778 190.37C66.0688 189.611 66.3897 188.864 66.7538 188.133L67.0362 187.587L67.3405 187.046L67.9704 186.029C68.7734 184.717 69.5125 183.341 70.2215 181.958C70.9304 180.575 71.5967 179.162 72.2182 177.733C72.8398 176.304 73.4265 174.866 73.9435 173.407C74.4659 171.964 74.902 170.491 75.2495 168.997C75.9111 165.939 76.5737 162.868 77.278 159.807C77.6327 158.277 77.9999 156.748 78.4103 155.228C78.8207 153.707 79.2487 152.188 79.7839 150.693C79.807 150.629 79.8531 150.576 79.9134 150.543C79.9737 150.511 80.044 150.501 80.1109 150.517C80.1777 150.532 80.2364 150.572 80.2758 150.628C80.3152 150.683 80.3325 150.751 80.3244 150.819L80.3181 150.82Z" fill="#371A45"/>
<path d="M121.177 158.691C119.361 158.691 118.083 158.032 118.056 158.017C117.935 157.953 117.844 157.842 117.805 157.712C117.765 157.581 117.78 157.439 117.845 157.319C117.911 157.199 118.022 157.109 118.154 157.07C118.286 157.031 118.429 157.046 118.55 157.111C118.758 157.22 123.714 159.733 127.736 153.344C130.027 149.703 128.705 145.984 127.305 142.046C126.172 138.855 124.999 135.554 125.766 132.166C125.799 132.036 125.882 131.923 125.998 131.853C126.113 131.782 126.252 131.759 126.384 131.789C126.517 131.818 126.632 131.897 126.706 132.01C126.781 132.123 126.807 132.259 126.781 132.391C126.079 135.492 127.201 138.65 128.287 141.704C129.706 145.699 131.174 149.829 128.618 153.89C126.164 157.788 123.302 158.691 121.177 158.691Z" fill="#371A45"/>
<path d="M104.226 174.451C103.241 174.535 102.138 174.61 100.952 174.665C101.66 174.683 102.313 174.691 102.895 174.693C103.349 174.694 103.801 174.612 104.226 174.451Z" fill="white"/>
<path d="M113.15 164.36C113.263 162.77 112.054 161.39 110.449 161.278C108.843 161.166 107.45 162.364 107.337 163.955C107.224 165.545 108.434 166.925 110.039 167.037C111.644 167.149 113.037 165.951 113.15 164.36Z" fill="white"/>
<g opacity="0.35">
<path opacity="0.35" d="M113.161 164.208C113.156 164.587 113.075 164.962 112.924 165.31C112.772 165.658 112.553 165.973 112.279 166.237C112.004 166.501 111.68 166.709 111.325 166.849C110.969 166.989 110.589 167.058 110.207 167.053C109.824 167.047 109.447 166.967 109.095 166.817C108.744 166.667 108.426 166.45 108.159 166.178C107.893 165.906 107.683 165.585 107.542 165.233C107.4 164.881 107.33 164.504 107.336 164.126C107.341 163.699 107.443 163.278 107.634 162.896C107.863 163.393 108.229 163.816 108.691 164.115C109.153 164.415 109.691 164.578 110.243 164.586C110.795 164.593 111.338 164.446 111.808 164.16C112.279 163.874 112.657 163.462 112.9 162.971C113.08 163.359 113.169 163.782 113.161 164.208Z" fill="#371A45"/>
</g>
<path d="M110.25 167.698H110.198C109.239 167.691 108.321 167.308 107.647 166.632C106.972 165.957 106.595 165.044 106.598 164.093C106.602 163.143 106.985 162.232 107.665 161.562C108.345 160.891 109.265 160.514 110.224 160.514C111.184 160.514 112.104 160.891 112.783 161.562C113.463 162.232 113.846 163.143 113.85 164.093C113.853 165.044 113.476 165.957 112.802 166.632C112.127 167.308 111.21 167.691 110.25 167.698ZM110.25 161.927C109.662 161.94 109.101 162.18 108.688 162.595C108.275 163.011 108.042 163.57 108.038 164.153C108.033 164.736 108.259 165.298 108.666 165.72C109.073 166.141 109.63 166.388 110.218 166.41H110.251C110.843 166.402 111.409 166.165 111.827 165.749C112.244 165.332 112.48 164.771 112.485 164.184C112.489 163.597 112.261 163.032 111.849 162.61C111.438 162.188 110.876 161.943 110.283 161.927H110.25Z" fill="#371A45"/>
<g opacity="0.35">
<path opacity="0.35" d="M107.83 171.041C107.863 171.818 107.584 172.577 107.054 173.152C106.523 173.727 105.785 174.07 105.001 174.107L91.2417 174.721C90.4565 174.754 89.6899 174.478 89.1097 173.953C88.5295 173.428 88.1828 172.696 88.1454 171.919L88.1069 171.046C82.9057 172.014 79.4354 171.493 77.6087 170.991C75.8554 176.531 72.4553 183.229 70.5184 186.224C69.1791 188.298 66.8354 193.708 67.7139 197.55C68.726 201.981 73.0977 203.608 76.492 202.985C73.171 205.052 66.76 203.865 65.5044 198.374C64.6259 194.532 66.9691 189.123 68.3084 187.048C70.4289 183.768 74.307 176.044 75.8533 170.266C75.9573 169.869 76.0546 169.48 76.1378 169.102C76.4863 167.522 76.8306 165.912 77.1656 164.326C77.7342 164.711 78.3524 165.018 79.0037 165.239C82.2722 166.393 86.6573 166.075 87.8744 165.958L87.8151 164.664C87.7808 163.886 88.0594 163.126 88.5898 162.551C89.1202 161.976 89.8592 161.633 90.6446 161.597L104.401 160.984C105.187 160.95 105.953 161.227 106.534 161.752C107.114 162.277 107.461 163.009 107.498 163.786L107.758 169.532L107.83 171.041Z" fill="#371A45"/>
</g>
<path d="M106.036 171.807L92.2785 172.42C91.4933 172.453 90.7269 172.177 90.1467 171.652C89.5665 171.127 89.2197 170.396 89.1822 169.618L88.853 162.364C88.8243 161.688 89.0313 161.022 89.4392 160.48C89.8471 159.937 90.4311 159.55 91.0931 159.383C91.286 159.334 91.4835 159.305 91.6824 159.297L105.438 158.683C106.223 158.649 106.99 158.925 107.57 159.451C108.15 159.976 108.497 160.708 108.534 161.486L108.794 167.231L108.863 168.739C108.896 169.517 108.618 170.276 108.088 170.851C107.558 171.425 106.82 171.769 106.036 171.807Z" fill="white"/>
<g opacity="0.35">
<path opacity="0.35" d="M106.036 171.807L92.2785 172.42C91.4933 172.453 90.7269 172.177 90.1467 171.652C89.5665 171.127 89.2197 170.396 89.1822 169.618L88.853 162.364C88.8243 161.688 89.0313 161.022 89.4392 160.48C89.8471 159.937 90.4311 159.55 91.0931 159.383C91.8978 159.862 92.4091 160.169 92.4091 160.169C93.3453 165.961 95.1491 168.79 102.453 168.582C105.606 168.492 107.572 167.927 108.798 167.231L108.867 168.739C108.901 169.518 108.621 170.277 108.091 170.852C107.56 171.427 106.821 171.77 106.036 171.807Z" fill="#371A45"/>
</g>
<path d="M92.1414 173.069C91.2116 173.066 90.3186 172.709 89.6467 172.072C88.9749 171.435 88.5758 170.567 88.5317 169.647L88.2015 162.393C88.1595 161.444 88.4991 160.517 89.1458 159.816C89.7924 159.115 90.6933 158.697 91.6509 158.653L105.409 158.039C106.367 157.999 107.301 158.335 108.009 158.976C108.716 159.616 109.139 160.508 109.184 161.456L109.514 168.71C109.555 169.659 109.215 170.585 108.569 171.286C107.922 171.987 107.022 172.405 106.065 172.45L92.3068 173.063C92.2517 173.067 92.196 173.069 92.1414 173.069ZM105.573 159.323C105.538 159.323 105.503 159.323 105.469 159.323L91.7107 159.937C91.0975 159.966 90.5206 160.234 90.1065 160.682C89.6924 161.131 89.475 161.725 89.5018 162.332L89.8321 169.587C89.862 170.194 90.1329 170.765 90.5858 171.174C91.0386 171.584 91.6367 171.8 92.2496 171.775L106.007 171.161C106.62 171.131 107.196 170.863 107.61 170.414C108.024 169.966 108.242 169.373 108.216 168.766L107.887 161.512C107.857 160.923 107.601 160.367 107.171 159.96C106.741 159.552 106.169 159.323 105.574 159.321L105.573 159.323Z" fill="#371A45"/>
<path d="M106.586 171.728C106.406 171.774 106.221 171.8 106.036 171.807L92.2785 172.42C91.7095 172.444 91.1456 172.306 90.6538 172.022C90.162 171.737 89.7632 171.319 89.5047 170.816C89.3117 170.444 89.2024 170.035 89.1843 169.618L89.0366 166.395L88.9882 165.332L88.853 162.364C88.82 161.586 89.0991 160.827 89.6293 160.252C90.1594 159.678 90.8975 159.334 91.6824 159.297L94.6555 159.165C93.9838 159.323 93.3886 159.708 92.9719 160.253C92.5552 160.798 92.343 161.47 92.3716 162.154L92.549 166.07L92.7014 169.407C92.7393 170.185 93.086 170.916 93.666 171.441C94.246 171.966 95.0121 172.243 95.7971 172.21L106.586 171.728Z" fill="white"/>
<g opacity="0.35">
<path opacity="0.35" d="M106.586 171.728C106.406 171.774 106.221 171.8 106.036 171.807L92.2785 172.42C91.4934 172.454 90.727 172.178 90.1471 171.652C89.5672 171.127 89.221 170.395 89.1843 169.618L88.9861 165.334C89.3663 166.076 90.0305 166.978 91.0297 167.031C91.5779 167.062 92.0975 166.649 92.5469 166.074L92.6993 169.412C92.7372 170.189 93.0839 170.92 93.6639 171.445C94.2439 171.971 95.01 172.247 95.795 172.215L106.586 171.728Z" fill="#371A45"/>
</g>
<path d="M92.1391 173.069C91.2097 173.065 90.3171 172.708 89.6458 172.072C88.9745 171.435 88.5758 170.567 88.532 169.647L88.2023 162.393C88.1614 161.444 88.5014 160.518 89.1477 159.818C89.794 159.117 90.6941 158.698 91.6512 158.653L94.6232 158.52L94.8021 159.791C94.2771 159.913 93.8118 160.214 93.4864 160.64C93.1609 161.066 92.9957 161.592 93.0191 162.126L93.3494 169.38C93.379 169.987 93.6493 170.557 94.1014 170.967C94.5535 171.377 95.1509 171.594 95.7633 171.569L106.555 171.086L106.741 172.355C106.518 172.41 106.29 172.442 106.06 172.451L92.3055 173.064C92.2499 173.067 92.1942 173.069 92.1391 173.069ZM92.4158 159.908L91.71 159.939C91.0973 159.969 90.5213 160.237 90.1075 160.686C89.6937 161.135 89.4757 161.727 89.501 162.334L89.8308 169.59C89.8603 170.197 90.1309 170.767 90.5836 171.177C91.0362 171.587 91.6341 171.803 92.2468 171.778L93.0431 171.742C92.4404 171.119 92.0876 170.3 92.0507 169.438L91.7204 162.183C91.6831 161.369 91.9285 160.566 92.4158 159.908Z" fill="#371A45"/>
<path d="M98.4829 165.598C98.4933 165.867 98.1984 168.047 98.1984 168.047L96.6557 168.108C95.5931 168.149 94.6886 167.092 94.6351 165.748C94.5815 164.404 95.3996 163.28 96.4623 163.239L98.0055 163.179C98.0055 163.179 98.4653 165.161 98.4829 165.598Z" fill="#22A7F0"/>
<g opacity="0.35">
<path opacity="0.35" d="M98.7427 165.598C98.7531 165.867 98.4582 168.047 98.4582 168.047L96.9155 168.108C95.8529 168.149 94.9484 167.092 94.8948 165.748C94.8412 164.404 95.6594 163.28 96.722 163.239L98.2652 163.179C98.2652 163.179 98.725 165.161 98.7427 165.598Z" fill="#371A45"/>
</g>
<path d="M96.8557 168.624C95.5429 168.624 94.4381 167.362 94.3747 165.769C94.3102 164.142 95.3535 162.776 96.7012 162.724L97.7784 162.682C98.0317 162.671 98.2811 162.748 98.482 162.902C98.6828 163.055 98.8222 163.274 98.8753 163.52C99.1208 164.622 99.2513 165.315 99.2617 165.578C99.2617 165.65 99.2722 165.84 99.035 167.649C99.0027 167.9 98.8816 168.131 98.6933 168.302C98.5049 168.472 98.2616 168.571 98.0067 168.58L96.9352 168.622C96.9077 168.624 96.8827 168.624 96.8557 168.624ZM97.8205 163.712L96.7438 163.753C95.9824 163.783 95.3743 164.688 95.4154 165.728C95.4565 166.751 96.1124 167.594 96.8577 167.594H96.8962L97.9677 167.552C97.9768 167.552 97.9856 167.548 97.9925 167.542C97.9993 167.536 98.0038 167.528 98.0051 167.519C98.1669 166.286 98.2236 165.724 98.2236 165.617C98.2168 165.465 98.1196 164.895 97.8595 163.743C97.8578 163.734 97.853 163.726 97.846 163.721C97.839 163.715 97.8301 163.712 97.821 163.712H97.8205Z" fill="#371A45"/>
<path d="M98.4548 168.05C99.5174 168.009 100.336 166.885 100.282 165.541C100.229 164.196 99.3243 163.14 98.2617 163.181C97.1991 163.223 96.3809 164.346 96.4342 165.691C96.4875 167.035 97.3922 168.092 98.4548 168.05Z" fill="#22A7F0"/>
<g opacity="0.7">
<path opacity="0.7" d="M100.284 165.54C100.292 165.702 100.285 165.864 100.266 166.024C100.006 165 99.2255 164.272 98.3412 164.306C97.4097 164.341 96.667 165.208 96.5312 166.327C96.4776 166.119 96.4466 165.905 96.4386 165.69C96.3866 164.346 97.2048 163.222 98.2669 163.18C99.329 163.138 100.233 164.194 100.284 165.54Z" fill="white"/>
</g>
<g opacity="0.35">
<path opacity="0.35" d="M100.285 165.54C100.338 166.884 99.5214 168.008 98.4593 168.05C97.3972 168.092 96.4917 167.034 96.4381 165.69C96.4286 165.473 96.4431 165.255 96.4813 165.041C96.784 165.977 97.5257 166.629 98.3631 166.596C99.2473 166.562 99.9625 165.775 100.146 164.737C100.228 164.998 100.275 165.268 100.285 165.54Z" fill="#371A45"/>
</g>
<path d="M98.3986 168.564C97.0853 168.564 95.9806 167.302 95.9176 165.708C95.8531 164.082 96.8965 162.717 98.2436 162.664C98.2707 162.664 98.2956 162.664 98.3237 162.664C99.6365 162.664 100.741 163.926 100.805 165.52C100.869 167.146 99.8253 168.509 98.4782 168.564C98.4517 168.564 98.4252 168.564 98.3986 168.564ZM98.3232 163.693H98.2847C97.5238 163.723 96.9157 164.626 96.9568 165.667C96.9979 166.707 97.6663 167.563 98.4371 167.531C99.1981 167.502 99.8066 166.598 99.7655 165.557C99.7249 164.536 99.0685 163.693 98.3232 163.693Z" fill="#371A45"/>
<path d="M102.277 172.461C102.14 172.461 102.01 172.408 101.913 172.314C101.815 172.219 101.759 172.091 101.756 171.956L101.677 168.283C101.666 167.779 101.781 167.279 102.012 166.829C102.243 166.38 102.584 165.994 103.003 165.707C103.286 165.513 103.516 165.252 103.669 164.946C103.822 164.641 103.895 164.301 103.879 163.961L103.662 158.79C103.659 158.723 103.67 158.655 103.693 158.592C103.717 158.528 103.753 158.47 103.799 158.42C103.893 158.319 104.023 158.259 104.161 158.254C104.299 158.248 104.433 158.297 104.535 158.389C104.585 158.435 104.626 158.491 104.655 158.552C104.683 158.613 104.7 158.68 104.702 158.748L104.919 163.922C104.942 164.436 104.833 164.948 104.602 165.409C104.37 165.87 104.025 166.265 103.597 166.558C103.319 166.748 103.094 167.003 102.941 167.301C102.787 167.599 102.711 167.93 102.719 168.264L102.798 171.937C102.799 172.004 102.787 172.072 102.762 172.135C102.738 172.198 102.701 172.255 102.653 172.304C102.606 172.353 102.55 172.392 102.487 172.42C102.425 172.447 102.357 172.462 102.289 172.463L102.277 172.461Z" fill="#371A45"/>
<path d="M77.8454 161.759C77.8454 161.759 75.4815 162.214 75.3931 164.966C75.3291 166.945 77.0985 168.126 77.0985 168.126C77.0985 168.126 81.0879 170.314 89.4369 168.689C89.4369 168.689 91.9335 165.519 89.2336 163.623C89.2336 163.623 81.3136 164.609 77.8454 161.759Z" fill="white"/>
<g opacity="0.35">
<path opacity="0.35" d="M89.4379 168.69C81.0878 170.313 77.0995 168.126 77.0995 168.126C77.0995 168.126 75.3311 166.945 75.3929 164.967C75.398 164.809 75.4116 164.652 75.4335 164.495C75.7532 165.136 76.2238 165.691 76.8056 166.113C76.8056 166.113 80.2858 168.02 87.5457 166.949C88.8137 166.762 89.8597 165.832 90.1197 164.588C90.1197 164.576 90.1244 164.565 90.127 164.553C91.2385 166.403 89.4379 168.69 89.4379 168.69Z" fill="#371A45"/>
</g>
<path d="M83.5924 169.936C79.1246 169.936 76.9078 168.758 76.783 168.69L76.7346 168.66C76.6503 168.604 74.6681 167.254 74.742 164.946C74.8252 162.362 76.7268 161.318 77.7208 161.127L78.023 161.069L78.2596 161.264C81.4735 163.904 89.0746 162.993 89.1515 162.984L89.4022 162.953L89.6103 163.098C90.4643 163.697 90.9668 164.469 91.103 165.391C91.3787 167.246 90.0108 169.011 89.9504 169.086L89.8012 169.275L89.563 169.322C87.2526 169.771 85.2652 169.936 83.5924 169.936ZM77.4383 167.576C77.7847 167.746 81.5993 169.501 89.0558 168.106C89.3393 167.681 89.9692 166.599 89.8147 165.573C89.7398 165.075 89.4875 164.654 89.0459 164.292C87.6244 164.438 81.1104 164.95 77.7072 162.469C77.1798 162.663 76.098 163.269 76.0428 164.987C75.9955 166.458 77.2469 167.434 77.4394 167.576H77.4383Z" fill="#371A45"/>
<path d="M121.94 138.293C121.893 138.293 121.845 138.288 121.799 138.278C112.913 136.324 113.591 128.007 113.598 127.925C113.616 127.756 113.7 127.6 113.832 127.491C113.964 127.383 114.134 127.33 114.306 127.344C114.477 127.359 114.635 127.442 114.746 127.573C114.856 127.705 114.909 127.874 114.893 128.044C114.866 128.341 114.331 135.318 122.081 137.022C122.237 137.057 122.375 137.147 122.468 137.276C122.561 137.405 122.603 137.564 122.585 137.721C122.568 137.879 122.492 138.024 122.373 138.13C122.254 138.236 122.1 138.295 121.94 138.295V138.293Z" fill="#371A45"/>
<path d="M130.515 95.5829L132.341 98.7158C132.46 98.9199 132.523 99.1515 132.523 99.3873C132.523 99.6231 132.46 99.8548 132.341 100.059C132.222 100.263 132.051 100.433 131.845 100.551C131.639 100.669 131.405 100.731 131.167 100.731H127.515C127.277 100.73 127.044 100.668 126.838 100.55C126.632 100.432 126.46 100.263 126.342 100.059C126.223 99.8546 126.16 99.623 126.16 99.3873C126.16 99.1515 126.222 98.92 126.341 98.7158L128.168 95.5829C128.287 95.3787 128.458 95.2092 128.664 95.0913C128.87 94.9734 129.104 94.9114 129.342 94.9114C129.579 94.9114 129.813 94.9734 130.019 95.0913C130.225 95.2092 130.396 95.3787 130.515 95.5829Z" fill="#FFE000"/>
<g opacity="0.35">
<path opacity="0.35" d="M126.2 99.0595C126.149 99.2577 126.146 99.4646 126.188 99.6645C126.231 99.8644 126.319 100.052 126.446 100.213C126.573 100.374 126.735 100.504 126.92 100.594C127.106 100.684 127.309 100.73 127.516 100.731C127.309 100.73 127.106 100.684 126.92 100.594C126.735 100.504 126.573 100.374 126.446 100.213C126.319 100.052 126.231 99.8644 126.188 99.6645C126.146 99.4646 126.149 99.2577 126.2 99.0595Z" fill="#371A45"/>
</g>
<g opacity="0.35">
<path opacity="0.35" d="M127.515 99.1847H131.166C131.385 99.1853 131.6 99.1329 131.794 99.032C131.987 98.9312 132.153 98.7849 132.276 98.606L130.513 95.5814C130.394 95.3772 130.223 95.2076 130.017 95.0898C129.811 94.9719 129.577 94.9098 129.339 94.9098C129.101 94.9098 128.868 94.9719 128.661 95.0898C128.455 95.2076 128.284 95.3772 128.165 95.5814L126.402 98.606C126.526 98.7853 126.692 98.9318 126.886 99.0327C127.08 99.1336 127.296 99.1858 127.515 99.1847Z" fill="#371A45"/>
</g>
<g opacity="0.35">
<path opacity="0.35" d="M131.357 100.719C131.619 100.683 131.863 100.572 132.062 100.399C132.26 100.227 132.403 100 132.473 99.7479C132.403 100 132.26 100.227 132.062 100.399C131.863 100.572 131.619 100.683 131.357 100.719Z" fill="#371A45"/>
</g>
<g opacity="0.35">
<path opacity="0.35" d="M132.473 99.7471C132.505 99.6369 132.522 99.523 132.525 99.4083C132.522 99.523 132.505 99.6369 132.473 99.7471Z" fill="#371A45"/>
</g>
<path d="M131.167 101.621H127.515C127.12 101.621 126.731 101.518 126.389 101.322C126.046 101.126 125.762 100.844 125.564 100.504C125.366 100.165 125.262 99.78 125.261 99.3881C125.261 98.9962 125.365 98.6111 125.563 98.2716L127.389 95.1382C127.585 94.7971 127.869 94.5139 128.212 94.3176C128.555 94.1214 128.945 94.0192 129.341 94.0216C129.737 94.0193 130.127 94.1215 130.47 94.3177C130.813 94.514 131.097 94.7972 131.294 95.1382L133.12 98.2716C133.317 98.6112 133.421 98.9963 133.421 99.3882C133.421 99.7802 133.317 100.165 133.119 100.505C132.921 100.844 132.636 101.126 132.294 101.322C131.951 101.518 131.562 101.621 131.167 101.621H131.167ZM129.342 95.8019C129.261 95.801 129.182 95.8216 129.113 95.8614C129.043 95.9012 128.986 95.9587 128.946 96.0281L127.12 99.1615C127.08 99.2302 127.059 99.3082 127.059 99.3875C127.059 99.4668 127.08 99.5448 127.12 99.6134C127.16 99.6821 127.218 99.7392 127.287 99.7789C127.357 99.8186 127.435 99.8395 127.515 99.8396H131.167C131.247 99.8397 131.326 99.8188 131.396 99.7791C131.465 99.7394 131.523 99.6823 131.563 99.6135C131.603 99.5448 131.624 99.4667 131.624 99.3873C131.624 99.3078 131.603 99.2298 131.563 99.161L129.737 96.0281C129.697 95.9588 129.64 95.9013 129.57 95.8615C129.501 95.8217 129.422 95.8011 129.342 95.8019Z" fill="#371A45"/>
<path d="M111.514 74.2793C112.028 84.6085 122.87 96.9236 129.459 96.6021C136.047 96.2806 145.615 82.9689 145.101 72.6417C144.587 62.3146 136.652 54.3031 127.378 54.756C118.103 55.2089 111 63.9495 111.514 74.2793Z" fill="#FFE000"/>
<g opacity="0.7">
<path opacity="0.7" d="M111.514 74.2793L111.519 74.3715C112.02 65.0167 118.761 57.4416 127.378 57.0211C136.561 56.5734 144.432 64.4185 145.084 74.6008C145.127 73.948 145.133 73.2932 145.102 72.6397C144.587 62.3099 136.652 54.3036 127.378 54.756C118.103 55.2084 111 63.9496 111.514 74.2793Z" fill="white"/>
</g>
<g opacity="0.35">
<path opacity="0.35" d="M111.515 71.9606C112.029 82.2903 122.871 94.6044 129.459 94.2844C136.047 93.9644 145.616 80.6497 145.102 70.321C145.097 70.2256 145.092 70.1318 145.086 70.0381C143.622 78.0187 135.321 86.8567 129.459 87.1452C122.871 87.4668 112.136 77.3328 111.71 68.7617C111.697 68.5098 111.693 68.2573 111.693 68.0084C111.507 69.3172 111.448 70.6406 111.515 71.9606Z" fill="#371A45"/>
</g>
<path d="M129.216 97.4987C125.833 97.4987 121.382 94.6559 117.514 90.0009C113.438 85.0975 110.86 79.2368 110.615 74.3231C110.355 69.109 111.939 64.1129 115.074 60.256C118.234 56.3678 122.587 54.099 127.333 53.8666C137.081 53.3905 145.462 61.7921 145.999 72.5954C146.244 77.5096 144.259 83.5929 140.69 88.8694C137.206 94.0221 132.919 97.325 129.503 97.492C129.408 97.4961 129.311 97.4987 129.216 97.4987ZM128.124 55.6283C127.891 55.6283 127.656 55.634 127.423 55.6459C123.197 55.852 119.309 57.8858 116.476 61.3726C113.618 64.8894 112.175 69.4578 112.413 74.2355C112.639 78.7802 115.065 84.2504 118.903 88.8694C122.473 93.1642 126.611 95.8503 129.416 95.7133C135.456 95.418 144.693 82.5052 144.205 72.6835C143.727 63.1241 136.583 55.6283 128.122 55.6283H128.124Z" fill="#371A45"/>
<g opacity="0.7">
<path opacity="0.7" d="M128.051 59.867C123.567 59.5517 120.449 60.8976 118.048 63.5734C115.499 66.4121 116.164 69.1724 118.685 69.1724C121.206 69.1724 122.214 65.3078 128.13 63.5471C131.954 62.4089 131.591 60.1149 128.051 59.867Z" fill="white"/>
</g>
<path d="M83.7859 141.691L82.1116 148.146L79.1198 159.683C78.789 159.804 78.4348 159.929 78.0536 160.067C76.0251 160.803 73.2684 161.959 69.6276 165.496C68.3522 166.736 66.9261 167.66 64.6911 169.016C59.8867 171.93 51.3972 167.189 58.1646 158.1C64.0087 150.253 70.7755 146.653 76.4729 144.385C78.375 143.629 80.1575 143.02 81.746 142.452C82.4679 142.194 83.1508 141.941 83.7859 141.691Z" fill="white"/>
<g opacity="0.35">
<path opacity="0.35" d="M79.12 159.683C77.0244 160.456 73.9494 161.298 69.6303 165.496C68.355 166.736 66.9288 167.66 64.6938 169.016C60.7091 171.428 54.1992 168.59 55.9313 162.377C57.4651 173.073 66.8019 166.126 70.0786 162.653C75.3017 157.119 81.4392 155.46 82.0311 156.518C82.623 157.576 79.12 159.683 79.12 159.683Z" fill="#371A45"/>
</g>
<path d="M61.5391 170.693C59.6214 170.693 57.7068 169.951 56.4081 168.548C53.9593 165.901 54.365 161.812 57.4941 157.611C65.0322 147.489 73.9394 144.339 80.443 142.039C81.5353 141.653 82.562 141.289 83.4748 140.928C83.5763 140.888 83.6848 140.868 83.7941 140.869C83.9034 140.87 84.0114 140.893 84.1119 140.935C84.2124 140.978 84.3034 141.04 84.3798 141.117C84.4561 141.195 84.5163 141.287 84.5569 141.387C84.5975 141.488 84.6177 141.595 84.6164 141.703C84.6151 141.812 84.5923 141.919 84.5492 142.018C84.5061 142.118 84.4437 142.208 84.3655 142.284C84.2872 142.359 84.1947 142.419 84.0932 142.459C83.1518 142.832 82.1079 143.202 81.0032 143.593C74.7013 145.822 66.0709 148.874 58.8344 158.591C56.1761 162.161 55.7392 165.383 57.6381 167.433C59.2646 169.191 62.1747 169.578 64.2625 168.313C66.5765 166.911 67.883 166.045 69.0476 164.909C73.1217 160.948 76.2217 159.845 78.2725 159.114C78.466 159.044 78.6527 158.978 78.8317 158.912C78.9341 158.875 79.0431 158.857 79.1523 158.861C79.2615 158.865 79.3688 158.891 79.4682 158.936C79.5675 158.981 79.6569 159.045 79.7313 159.124C79.8057 159.204 79.8635 159.297 79.9016 159.398C79.9396 159.5 79.9571 159.608 79.953 159.716C79.949 159.824 79.9234 159.931 79.8779 160.029C79.8324 160.127 79.7677 160.216 79.6876 160.29C79.6075 160.363 79.5135 160.421 79.4111 160.458C79.2269 160.526 79.0355 160.594 78.8358 160.664C76.8073 161.386 74.0283 162.377 70.2142 166.085C68.9316 167.332 67.5528 168.249 65.1285 169.718C64.045 170.375 62.7915 170.693 61.5391 170.693Z" fill="#371A45"/>
<path d="M113.844 123.439C113.781 123.456 113.715 123.46 113.65 123.452C113.585 123.444 113.522 123.423 113.465 123.39C113.408 123.358 113.358 123.315 113.318 123.263C113.278 123.212 113.249 123.153 113.231 123.09L109.468 109.333C109.451 109.27 109.447 109.204 109.455 109.14C109.463 109.075 109.485 109.013 109.517 108.957C109.55 108.9 109.593 108.851 109.645 108.811C109.697 108.772 109.757 108.743 109.82 108.726C110.484 108.547 111.177 108.5 111.86 108.588C112.543 108.675 113.201 108.894 113.798 109.233C114.395 109.573 114.919 110.025 115.339 110.565C115.76 111.105 116.069 111.721 116.249 112.379L117.532 117.068C117.712 117.727 117.76 118.413 117.672 119.09C117.584 119.766 117.363 120.419 117.02 121.01C116.678 121.602 116.221 122.121 115.676 122.538C115.131 122.954 114.509 123.26 113.844 123.439Z" fill="white"/>
<path d="M113.713 123.631C113.564 123.631 113.42 123.582 113.303 123.493C113.185 123.404 113.1 123.278 113.061 123.136L109.298 109.378C109.275 109.293 109.268 109.204 109.279 109.117C109.291 109.029 109.319 108.945 109.363 108.868C109.408 108.792 109.467 108.724 109.537 108.67C109.608 108.617 109.688 108.577 109.774 108.554C111.161 108.183 112.64 108.373 113.886 109.081C115.131 109.789 116.043 110.958 116.42 112.331L117.703 117.023C117.889 117.703 117.938 118.413 117.847 119.112C117.757 119.811 117.528 120.486 117.174 121.097C116.82 121.709 116.348 122.245 115.784 122.675C115.221 123.106 114.578 123.423 113.891 123.607C113.833 123.623 113.773 123.631 113.713 123.631ZM111.19 108.718C110.743 108.718 110.298 108.777 109.867 108.893C109.826 108.904 109.787 108.923 109.754 108.948C109.72 108.974 109.692 109.006 109.671 109.042C109.65 109.079 109.636 109.119 109.631 109.161C109.625 109.202 109.628 109.245 109.639 109.285L113.402 123.043C113.413 123.084 113.432 123.122 113.458 123.155C113.484 123.188 113.516 123.216 113.553 123.237C113.59 123.258 113.631 123.272 113.673 123.277C113.715 123.282 113.758 123.279 113.799 123.268C114.44 123.096 115.042 122.8 115.568 122.398C116.095 121.995 116.536 121.494 116.867 120.922C117.198 120.351 117.412 119.72 117.497 119.067C117.582 118.413 117.536 117.75 117.362 117.114L116.079 112.422C115.787 111.359 115.149 110.421 114.266 109.751C113.383 109.082 112.302 108.719 111.19 108.718Z" fill="#371A45"/>
<g opacity="0.35">
<path opacity="0.35" d="M116.933 114.87L117.535 117.07C117.715 117.728 117.763 118.416 117.675 119.092C117.587 119.769 117.365 120.422 117.023 121.013C116.68 121.605 116.223 122.124 115.678 122.541C115.133 122.958 114.51 123.264 113.845 123.442C113.717 123.477 113.581 123.459 113.466 123.394C113.351 123.328 113.267 123.22 113.232 123.093L112.23 119.435C112.291 119.509 112.372 119.564 112.464 119.593C112.555 119.623 112.654 119.625 112.747 119.601L113.076 119.512C114.126 119.23 115.061 118.632 115.752 117.801C116.443 116.969 116.856 115.944 116.933 114.87Z" fill="#371A45"/>
</g>
<path d="M113.712 124.282C113.42 124.281 113.136 124.185 112.904 124.009C112.672 123.833 112.505 123.586 112.428 123.306L108.665 109.548C108.573 109.211 108.62 108.851 108.795 108.547C108.971 108.243 109.261 108.021 109.602 107.929C111.156 107.514 112.814 107.727 114.211 108.52C115.607 109.314 116.629 110.624 117.052 112.163L118.336 116.856C118.757 118.396 118.543 120.039 117.741 121.423C116.94 122.807 115.616 123.82 114.061 124.237C113.947 124.267 113.83 124.282 113.712 124.282ZM110.364 109.446L113.946 122.544C114.994 122.177 115.863 121.431 116.379 120.456C116.895 119.481 117.02 118.348 116.729 117.285L115.446 112.593C115.154 111.531 114.469 110.617 113.527 110.034C112.585 109.451 111.455 109.241 110.364 109.446Z" fill="#371A45"/>
<path d="M63.9764 121.03C64.0397 121.013 64.1058 121.008 64.1709 121.017C64.2359 121.025 64.2987 121.046 64.3556 121.078C64.4125 121.111 64.4624 121.154 64.5025 121.205C64.5425 121.257 64.572 121.315 64.5891 121.378L68.3527 135.139C68.3699 135.202 68.3744 135.267 68.366 135.332C68.3576 135.396 68.3365 135.458 68.3039 135.515C68.2712 135.571 68.2277 135.621 68.1757 135.66C68.1238 135.7 68.0644 135.729 68.0011 135.746C66.6595 136.106 65.2285 135.924 64.0228 135.238C62.8171 134.553 61.9355 133.422 61.5719 132.093L60.2908 127.399C59.9271 126.07 60.1111 124.653 60.8023 123.458C61.4934 122.264 62.6352 121.39 63.9764 121.03Z" fill="white"/>
<path d="M66.631 136.101C65.4411 136.099 64.2846 135.711 63.3395 134.995C62.3944 134.278 61.7132 133.274 61.4007 132.137L60.1175 127.445C59.7435 126.071 59.935 124.606 60.65 123.372C61.3651 122.137 62.5453 121.234 63.9316 120.861C64.1046 120.814 64.2892 120.838 64.4446 120.927C64.6001 121.015 64.7138 121.161 64.7607 121.332L68.5243 135.09C68.5479 135.175 68.5543 135.264 68.5432 135.352C68.532 135.439 68.5035 135.524 68.4593 135.6C68.4151 135.677 68.356 135.744 68.2855 135.798C68.215 135.852 68.1344 135.892 68.0484 135.915C67.5863 136.039 67.1097 136.101 66.631 136.101ZM64.0221 121.198C62.7266 121.548 61.6239 122.392 60.9558 123.546C60.2877 124.7 60.1087 126.069 60.4582 127.353L61.7419 132.047C62.0932 133.332 62.9451 134.425 64.1101 135.087C65.2751 135.749 66.6579 135.926 67.9542 135.578C68.0368 135.555 68.1072 135.502 68.1499 135.428C68.1926 135.355 68.2042 135.267 68.182 135.186L64.4184 121.428C64.4073 121.387 64.3883 121.349 64.3624 121.316C64.3364 121.283 64.3041 121.255 64.2673 121.234C64.2305 121.213 64.1899 121.199 64.1478 121.194C64.1058 121.189 64.063 121.191 64.0221 121.202V121.198Z" fill="#371A45"/>
<g opacity="0.35">
<path opacity="0.35" d="M67.3099 131.32L68.3533 135.139C68.3878 135.266 68.3701 135.401 68.3041 135.515C68.2381 135.629 68.1291 135.712 68.0011 135.747C67.3369 135.925 66.6437 135.972 65.9612 135.885C65.2786 135.798 64.62 135.579 64.023 135.24C63.426 134.901 62.9024 134.448 62.482 133.908C62.0616 133.369 61.7527 132.752 61.5729 132.094L61.032 130.117C61.6735 130.886 62.5252 131.457 63.4852 131.759C64.4452 132.062 65.473 132.084 66.4454 131.823L66.952 131.687C67.0395 131.663 67.1189 131.617 67.1818 131.552C67.2448 131.487 67.289 131.407 67.3099 131.32Z" fill="#371A45"/>
</g>
<path d="M66.6324 136.751C65.2982 136.749 64.0015 136.313 62.942 135.51C61.8825 134.706 61.1188 133.58 60.7685 132.305L59.4848 127.616C59.0656 126.076 59.2802 124.434 60.0815 123.05C60.8828 121.666 62.2054 120.653 63.7592 120.234C64.1001 120.143 64.4635 120.189 64.7698 120.363C65.0762 120.537 65.3004 120.824 65.3934 121.162L69.1571 134.92C69.2495 135.257 69.2029 135.618 69.0273 135.921C68.8517 136.225 68.5617 136.447 68.2208 136.539C67.7032 136.679 67.169 136.75 66.6324 136.751ZM63.8757 121.924C62.8288 122.293 61.9607 123.039 61.4448 124.014C60.9288 124.989 60.8028 126.121 61.092 127.183L62.3752 131.875C62.666 132.938 63.3513 133.853 64.2938 134.436C65.2364 135.02 66.3666 135.229 67.4583 135.023L63.8757 121.924Z" fill="#371A45"/>
<g opacity="0.35">
<path opacity="0.35" d="M109.884 132.563C109.513 135.617 108.422 138.543 106.7 141.103C104.978 143.664 102.673 145.788 99.9702 147.305C97.2678 148.821 94.2437 149.687 91.1415 149.834C88.0392 149.981 84.9456 149.404 82.1098 148.149C81.6046 147.926 81.1111 147.683 80.6295 147.418C79.1153 146.592 77.7165 145.573 76.4685 144.387C78.3706 143.632 80.1531 143.022 81.7415 142.455C82.5061 139.585 83.4657 137.076 84.4821 137.076H101.428C102.409 137.076 103.255 137.24 103.984 137.524C104.155 137.4 104.335 137.269 104.52 137.131C105.939 136.08 107.773 134.587 109.884 132.563Z" fill="#371A45"/>
</g>
<path d="M88.9136 146.526C102.456 146.526 113.435 135.65 113.435 122.234C113.435 108.817 102.456 97.9408 88.9136 97.9408C75.3709 97.9408 64.3923 108.817 64.3923 122.234C64.3923 135.65 75.3709 146.526 88.9136 146.526Z" fill="white"/>
<path d="M88.8629 146.709C84.0054 146.709 79.2577 145.285 75.1363 142.541C69.6609 138.894 65.9467 133.355 64.6776 126.941C63.4085 120.527 64.7358 114.008 68.4162 108.584C72.0966 103.161 77.688 99.4805 84.162 98.2232C90.636 96.9659 97.2171 98.2809 102.692 101.926C108.167 105.572 111.881 111.112 113.151 117.526C115.771 130.765 107.03 143.65 93.6662 146.244C92.084 146.552 90.4753 146.708 88.8629 146.709ZM88.9669 98.1083C87.3779 98.1091 85.7928 98.2625 84.2337 98.5664C77.8529 99.8061 72.3406 103.433 68.7127 108.78C65.0849 114.126 63.7767 120.552 65.0282 126.874C66.2796 133.196 69.9402 138.656 75.337 142.25C80.7338 145.844 87.2208 147.141 93.6017 145.901C106.774 143.342 115.39 130.643 112.807 117.593C111.556 111.272 107.895 105.811 102.498 102.217C98.4326 99.5124 93.752 98.1083 88.9648 98.1083H88.9669Z" fill="#371A45"/>
<g opacity="0.35">
<path opacity="0.35" d="M112.095 114.304C112.466 115.368 112.761 116.456 112.979 117.56C115.583 130.726 106.923 143.491 93.6308 146.073C80.3391 148.656 67.4556 140.073 64.8487 126.908C64.7738 126.529 64.7078 126.149 64.6521 125.774C68.5707 137.063 80.39 144.046 92.5495 141.684C105.457 139.174 113.996 127.062 112.095 114.304Z" fill="#371A45"/>
</g>
<path d="M88.8615 147.359C83.875 147.359 79.0015 145.897 74.7708 143.082C69.1498 139.339 65.3367 133.653 64.0338 127.068C62.7309 120.484 64.0937 113.792 67.8718 108.224C71.65 102.655 77.3901 98.8781 84.0363 97.5873C90.6824 96.2966 97.4373 97.6466 103.058 101.389C108.678 105.131 112.492 110.819 113.795 117.403C116.484 130.994 107.512 144.219 93.7922 146.884C92.168 147.2 90.5167 147.359 88.8615 147.359ZM88.9655 98.7585C87.419 98.7593 85.8762 98.9085 84.3587 99.2043C78.1495 100.41 72.786 103.94 69.2559 109.142C65.7258 114.344 64.4531 120.598 65.6707 126.749C66.8883 132.9 70.4501 138.214 75.7018 141.71C80.9535 145.207 87.2647 146.469 93.4739 145.263C106.292 142.773 114.675 130.417 112.162 117.718C110.945 111.567 107.383 106.253 102.131 102.757C98.1764 100.125 93.6216 98.7606 88.9634 98.7606L88.9655 98.7585Z" fill="#371A45"/>
<path d="M113.022 118.187C114.016 122.837 113.415 127.474 111.573 131.594C110.191 134.682 103.162 141.054 93.2644 143.223C84.0858 145.233 74.6804 142.133 72.1541 139.865C68.7843 136.839 66.3376 132.842 65.3405 128.191C62.7097 115.884 72.292 108.543 85.4589 105.78C98.6259 103.017 110.391 105.88 113.022 118.187Z" fill="#371A45"/>
<g opacity="0.5">
<path opacity="0.5" d="M105.045 122.949C106.781 122.897 108.132 120.932 108.062 118.559C107.992 116.185 106.527 114.303 104.791 114.354C103.055 114.406 101.705 116.371 101.775 118.744C101.845 121.117 103.309 123 105.045 122.949Z" fill="white"/>
</g>
<g opacity="0.5">
<path opacity="0.5" d="M104.619 127.955C104.738 126.872 104.074 125.91 103.135 125.808C102.197 125.705 101.34 126.5 101.222 127.583C101.103 128.667 101.767 129.628 102.705 129.731C103.644 129.833 104.5 129.038 104.619 127.955Z" fill="white"/>
</g>
<g opacity="0.35">
<path opacity="0.35" d="M105.93 107.679C109.433 109.822 111.963 113.243 113.021 118.186C114.015 122.838 113.413 127.475 111.573 131.594C110.191 134.682 103.161 141.055 93.2643 143.225C89.7696 143.992 86.2426 144.015 83.073 143.626C95.1836 140.701 103.738 132.895 105.45 129.065C107.791 123.837 108.551 117.951 107.288 112.05C106.974 110.554 106.519 109.091 105.93 107.679Z" fill="#111A28"/>
</g>
<path d="M64.892 118.091C64.7622 118.09 64.6346 118.058 64.5207 117.996C64.4068 117.935 64.3102 117.846 64.2396 117.738C64.169 117.63 64.1267 117.507 64.1164 117.379C64.1062 117.251 64.1284 117.122 64.181 117.005C67.101 109.952 74.5543 104.695 84.6343 102.577C94.64 100.478 103.575 102.171 109.157 107.224C109.304 107.344 109.401 107.515 109.429 107.702C109.458 107.889 109.417 108.08 109.313 108.238C109.209 108.397 109.05 108.513 108.866 108.563C108.682 108.613 108.485 108.595 108.314 108.512L108.277 108.492L108.198 108.448L108.131 108.388C102.93 103.656 94.4813 102.089 84.9573 104.087C75.3824 106.097 68.3331 111.023 65.617 117.604L65.5832 117.675C65.5173 117.801 65.418 117.905 65.2961 117.979C65.1743 118.052 65.0345 118.091 64.892 118.091Z" fill="#371A45"/>
<g opacity="0.5">
<path opacity="0.5" d="M72.2606 134.389C72.2606 134.389 65.8178 123.056 71.3878 116.832C76.9578 110.608 86.4641 108.634 86.371 109.284C86.371 109.284 76.3909 114.014 74.0363 123.117C72.221 130.136 72.2606 134.389 72.2606 134.389Z" fill="white"/>
</g>
<path d="M92.8931 179.092C93.7945 179.038 94.7276 179.005 95.6445 178.961C96.5615 178.918 97.4873 178.88 98.4048 178.798C99.3223 178.716 100.24 178.614 101.147 178.45C102.054 178.285 102.953 178.075 103.837 177.764C103.858 177.757 103.882 177.757 103.903 177.766C103.923 177.774 103.941 177.79 103.951 177.81C103.961 177.83 103.963 177.853 103.958 177.874C103.952 177.896 103.939 177.915 103.921 177.928C103.128 178.458 102.248 178.861 101.346 179.192C100.44 179.507 99.513 179.759 98.5718 179.948C97.6348 180.141 96.6867 180.278 95.733 180.357C94.777 180.429 93.8324 180.463 92.8572 180.381C92.6911 180.37 92.5356 180.297 92.4226 180.176C92.3096 180.054 92.2478 179.895 92.2498 179.73C92.2518 179.565 92.3175 179.407 92.4334 179.289C92.5492 179.17 92.7065 179.1 92.8728 179.093L92.8931 179.092Z" fill="#371A45"/>
<path d="M99.7609 190.144C94.8535 190.144 90.9021 186.843 90.8459 186.795C90.7188 186.682 90.6413 186.525 90.6301 186.356C90.6189 186.188 90.6748 186.022 90.7859 185.894C90.897 185.766 91.0544 185.686 91.2242 185.672C91.394 185.658 91.5626 185.71 91.6937 185.818C91.9907 186.07 99.0306 191.923 105.607 186.762C105.674 186.707 105.751 186.665 105.834 186.64C105.917 186.615 106.004 186.607 106.09 186.616C106.176 186.625 106.26 186.651 106.336 186.692C106.412 186.733 106.479 186.789 106.533 186.857C106.586 186.924 106.626 187.001 106.649 187.084C106.673 187.167 106.679 187.253 106.668 187.339C106.657 187.424 106.629 187.506 106.585 187.58C106.542 187.654 106.484 187.719 106.414 187.771C104.176 189.529 101.879 190.144 99.7609 190.144Z" fill="#371A45"/>
<path d="M82.6743 188.044C80.4867 188.044 78.2252 187.204 75.9762 185.533C73.1987 183.472 71.436 180.892 71.3621 180.783C71.266 180.641 71.2307 180.467 71.2639 180.299C71.2972 180.132 71.3963 179.984 71.5395 179.889C71.6827 179.794 71.8582 179.759 72.0274 179.792C72.1967 179.824 72.3458 179.923 72.4419 180.065C72.508 180.162 79.1713 189.803 86.3812 185.747C86.5312 185.663 86.7089 185.641 86.8752 185.686C87.0415 185.731 87.1828 185.84 87.2681 185.989C87.3533 186.137 87.3755 186.313 87.3298 186.478C87.284 186.643 87.1741 186.783 87.0241 186.867C85.6255 187.653 84.165 188.044 82.6743 188.044Z" fill="#371A45"/>
<path d="M75.2431 161.934C75.0873 161.933 74.9367 161.878 74.8189 161.777C74.701 161.676 74.6236 161.536 74.6008 161.383C73.6328 154.875 67.7934 149.12 67.7351 149.062C67.6122 148.943 67.5423 148.779 67.5408 148.609C67.5393 148.438 67.6064 148.273 67.7273 148.151C67.8483 148.03 68.0131 147.96 68.1855 147.959C68.358 147.957 68.524 148.024 68.6469 148.144C68.8997 148.389 74.8551 154.253 75.8876 161.196C75.9127 161.365 75.8691 161.537 75.7663 161.674C75.6635 161.811 75.5099 161.902 75.3394 161.927C75.3075 161.931 75.2753 161.933 75.2431 161.934Z" fill="#371A45"/>
<path d="M71.4226 190.394C71.9619 191.176 72.6235 191.867 73.3824 192.442C74.1299 193.006 74.9693 193.432 75.8437 193.627C76.7056 193.816 77.6019 193.786 78.449 193.54C79.2864 193.295 80.0712 192.881 80.7926 192.362C80.972 192.233 81.1956 192.18 81.4144 192.215C81.6332 192.249 81.8292 192.368 81.9593 192.546C82.0894 192.724 82.1429 192.945 82.1081 193.162C82.0732 193.379 81.9529 193.573 81.7736 193.702C81.7424 193.724 81.7098 193.745 81.6758 193.763L81.6644 193.768C80.7469 194.245 79.7441 194.607 78.6965 194.754C78.1717 194.815 77.6407 194.843 77.1164 194.778C76.597 194.721 76.0868 194.6 75.5976 194.418C74.6297 194.049 73.797 193.449 73.1062 192.753C72.4221 192.06 71.8538 191.264 71.4226 190.394Z" fill="#371A45"/>
<path d="M91.5359 193.169C92.04 193.859 92.6593 194.459 93.3672 194.942C94.046 195.414 94.8162 195.742 95.6293 195.904C96.4139 196.049 97.2214 196.021 97.9938 195.821C98.7634 195.618 99.4972 195.3 100.17 194.878C100.268 194.818 100.377 194.779 100.491 194.763C100.605 194.746 100.721 194.754 100.832 194.784C100.943 194.814 101.047 194.867 101.136 194.939C101.226 195.01 101.299 195.1 101.352 195.201C101.405 195.302 101.437 195.413 101.444 195.527C101.452 195.641 101.436 195.755 101.397 195.862C101.358 195.97 101.297 196.068 101.218 196.151C101.139 196.234 101.043 196.3 100.937 196.344L100.924 196.349C100.054 196.717 99.1319 196.952 98.1904 197.043C97.2471 197.132 96.2957 197.014 95.4035 196.698C94.5449 196.382 93.7618 195.893 93.1035 195.262C92.4644 194.658 91.9342 193.95 91.5359 193.169Z" fill="#371A45"/>
<path d="M70.524 260.312V266H65.796V249.008H72.852C74.9 249.008 76.46 249.528 77.532 250.568C78.62 251.592 79.164 252.968 79.164 254.696C79.164 255.768 78.924 256.728 78.444 257.576C77.964 258.424 77.244 259.096 76.284 259.592C75.34 260.072 74.196 260.312 72.852 260.312H70.524ZM72.324 256.592C73.7 256.592 74.388 255.96 74.388 254.696C74.388 253.448 73.7 252.824 72.324 252.824H70.524V256.592H72.324ZM85.2549 248.24V266H80.5269V248.24H85.2549ZM92.3749 252.368C93.3189 252.368 94.1349 252.576 94.8229 252.992C95.5269 253.392 96.0469 253.952 96.3829 254.672V252.536H101.087V266H96.3829V263.864C96.0469 264.584 95.5269 265.152 94.8229 265.568C94.1349 265.968 93.3189 266.168 92.3749 266.168C91.3029 266.168 90.3349 265.896 89.4709 265.352C88.6069 264.792 87.9269 263.992 87.4309 262.952C86.9349 261.896 86.6869 260.664 86.6869 259.256C86.6869 257.848 86.9349 256.624 87.4309 255.584C87.9269 254.544 88.6069 253.752 89.4709 253.208C90.3349 252.648 91.3029 252.368 92.3749 252.368ZM93.9349 256.496C93.1989 256.496 92.5989 256.744 92.1349 257.24C91.6869 257.72 91.4629 258.392 91.4629 259.256C91.4629 260.136 91.6869 260.824 92.1349 261.32C92.5989 261.8 93.1989 262.04 93.9349 262.04C94.6389 262.04 95.2229 261.792 95.6869 261.296C96.1509 260.8 96.3829 260.12 96.3829 259.256C96.3829 258.408 96.1509 257.736 95.6869 257.24C95.2229 256.744 94.6389 256.496 93.9349 256.496ZM107.008 252.536L109.888 260.072L112.552 252.536H117.784L109.264 272.432H104.08L107.368 265.424L101.752 252.536H107.008ZM131.375 259.016C131.375 259.352 131.335 259.72 131.255 260.12H122.351C122.431 261.64 123.095 262.4 124.343 262.4C124.807 262.4 125.191 262.288 125.495 262.064C125.799 261.84 126.007 261.544 126.119 261.176H131.111C130.935 262.12 130.543 262.976 129.935 263.744C129.327 264.496 128.559 265.088 127.631 265.52C126.703 265.952 125.687 266.168 124.583 266.168C123.239 266.168 122.047 265.896 121.007 265.352C119.983 264.792 119.183 263.992 118.607 262.952C118.031 261.896 117.743 260.664 117.743 259.256C117.743 257.848 118.031 256.624 118.607 255.584C119.183 254.544 119.991 253.752 121.031 253.208C122.071 252.648 123.255 252.368 124.583 252.368C125.927 252.368 127.111 252.64 128.135 253.184C129.159 253.728 129.951 254.504 130.511 255.512C131.087 256.52 131.375 257.688 131.375 259.016ZM126.575 258.152C126.591 257.464 126.407 256.944 126.023 256.592C125.639 256.24 125.159 256.064 124.583 256.064C123.959 256.064 123.447 256.24 123.047 256.592C122.663 256.944 122.439 257.464 122.375 258.152H126.575ZM137.522 255.056C138.05 254.256 138.714 253.616 139.514 253.136C140.314 252.656 141.162 252.416 142.058 252.416V257.456H140.69C139.634 257.456 138.842 257.664 138.314 258.08C137.786 258.48 137.522 259.184 137.522 260.192V266H132.794V252.536H137.522V255.056ZM146.06 253.448V249.008H153.548V266H148.604V253.448H146.06Z" fill="white"/>
<path d="M66.872 307.596C66.872 308.604 66.62 309.537 66.116 310.396C65.612 311.236 64.8653 311.917 63.876 312.44C62.8867 312.944 61.6827 313.196 60.264 313.196C58.864 313.196 57.6133 312.963 56.512 312.496C55.4107 312.011 54.524 311.32 53.852 310.424C53.1987 309.528 52.8253 308.483 52.732 307.288H56.932C57.0253 308.091 57.3427 308.763 57.884 309.304C58.444 309.827 59.1813 310.088 60.096 310.088C60.9173 310.088 61.5427 309.873 61.972 309.444C62.42 308.996 62.644 308.427 62.644 307.736C62.644 307.12 62.4667 306.616 62.112 306.224C61.7573 305.813 61.3093 305.487 60.768 305.244C60.2267 305.001 59.48 304.721 58.528 304.404C57.296 303.993 56.288 303.592 55.504 303.2C54.72 302.789 54.048 302.201 53.488 301.436C52.9467 300.671 52.676 299.672 52.676 298.44C52.676 296.741 53.2827 295.407 54.496 294.436C55.728 293.447 57.352 292.952 59.368 292.952C61.4587 292.952 63.12 293.456 64.352 294.464C65.6027 295.472 66.312 296.816 66.48 298.496H62.224C62.112 297.787 61.8133 297.208 61.328 296.76C60.8427 296.293 60.18 296.06 59.34 296.06C58.612 296.06 58.024 296.256 57.576 296.648C57.128 297.021 56.904 297.572 56.904 298.3C56.904 298.879 57.072 299.364 57.408 299.756C57.7627 300.129 58.2013 300.437 58.724 300.68C59.2653 300.923 59.9933 301.193 60.908 301.492C62.1773 301.94 63.204 302.36 63.988 302.752C64.7907 303.144 65.472 303.732 66.032 304.516C66.592 305.3 66.872 306.327 66.872 307.596ZM76.1923 297.292C78.1896 297.292 79.8509 297.833 81.1763 298.916C82.5203 299.999 83.3603 301.473 83.6963 303.34H79.5243C79.3563 302.519 78.9736 301.875 78.3763 301.408C77.7789 300.923 77.0229 300.68 76.1083 300.68C75.0629 300.68 74.1856 301.072 73.4763 301.856C72.7856 302.621 72.4403 303.751 72.4403 305.244C72.4403 306.737 72.7856 307.876 73.4763 308.66C74.1856 309.425 75.0629 309.808 76.1083 309.808C77.0229 309.808 77.7789 309.575 78.3763 309.108C78.9736 308.623 79.3563 307.969 79.5243 307.148H83.6963C83.3603 309.015 82.5203 310.489 81.1763 311.572C79.8509 312.655 78.1896 313.196 76.1923 313.196C74.6803 313.196 73.3363 312.879 72.1603 312.244C70.9843 311.591 70.0696 310.667 69.4163 309.472C68.7629 308.277 68.4363 306.868 68.4363 305.244C68.4363 303.62 68.7629 302.211 69.4163 301.016C70.0696 299.803 70.9843 298.879 72.1603 298.244C73.3363 297.609 74.6803 297.292 76.1923 297.292ZM93.1095 297.292C94.6215 297.292 95.9749 297.609 97.1695 298.244C98.3829 298.879 99.3349 299.803 100.026 301.016C100.716 302.211 101.062 303.62 101.062 305.244C101.062 306.868 100.716 308.277 100.026 309.472C99.3349 310.667 98.3829 311.591 97.1695 312.244C95.9749 312.879 94.6215 313.196 93.1095 313.196C91.5975 313.196 90.2349 312.879 89.0215 312.244C87.8269 311.591 86.8842 310.667 86.1935 309.472C85.5029 308.277 85.1575 306.868 85.1575 305.244C85.1575 303.62 85.5029 302.211 86.1935 301.016C86.8842 299.803 87.8269 298.879 89.0215 298.244C90.2349 297.609 91.5975 297.292 93.1095 297.292ZM93.1095 300.708C92.0082 300.708 91.0749 301.1 90.3095 301.884C89.5442 302.649 89.1615 303.769 89.1615 305.244C89.1615 306.719 89.5442 307.848 90.3095 308.632C91.0749 309.397 92.0082 309.78 93.1095 309.78C94.2109 309.78 95.1442 309.397 95.9095 308.632C96.6749 307.848 97.0575 306.719 97.0575 305.244C97.0575 303.769 96.6749 302.649 95.9095 301.884C95.1442 301.1 94.2109 300.708 93.1095 300.708ZM107.24 300.456C107.818 299.467 108.584 298.692 109.536 298.132C110.488 297.553 111.552 297.264 112.728 297.264V301.492H111.58C108.686 301.492 107.24 302.836 107.24 305.524V313H103.292V297.488H107.24V300.456ZM128.941 304.656C128.941 305.048 128.894 305.496 128.801 306H117.433C117.489 307.381 117.862 308.399 118.553 309.052C119.243 309.705 120.102 310.032 121.129 310.032C122.043 310.032 122.799 309.808 123.397 309.36C124.013 308.912 124.405 308.305 124.573 307.54H128.745C128.539 308.623 128.101 309.593 127.429 310.452C126.757 311.311 125.889 311.983 124.825 312.468C123.779 312.953 122.613 313.196 121.325 313.196C119.813 313.196 118.469 312.879 117.293 312.244C116.117 311.591 115.202 310.667 114.549 309.472C113.895 308.277 113.569 306.868 113.569 305.244C113.569 303.62 113.895 302.211 114.549 301.016C115.202 299.803 116.117 298.879 117.293 298.244C118.469 297.609 119.813 297.292 121.325 297.292C122.855 297.292 124.19 297.609 125.329 298.244C126.486 298.879 127.373 299.756 127.989 300.876C128.623 301.977 128.941 303.237 128.941 304.656ZM124.965 304.264C125.021 302.995 124.685 302.033 123.957 301.38C123.247 300.727 122.37 300.4 121.325 300.4C120.261 300.4 119.365 300.727 118.637 301.38C117.909 302.033 117.507 302.995 117.433 304.264H124.965ZM135.047 297.236V301.352H130.791V297.236H135.047ZM135.047 308.884V313H130.791V308.884H135.047ZM141.541 296.928V293.232H148.653V313H144.509V296.928H141.541ZM151.203 302.948C151.203 309.649 153.723 313 158.763 313C161.433 313 163.355 312.104 164.531 310.312C165.707 308.52 166.295 306.065 166.295 302.948C166.295 299.849 165.707 297.404 164.531 295.612C163.355 293.82 161.433 292.924 158.763 292.924C153.723 292.924 151.203 296.265 151.203 302.948ZM162.403 302.948C162.403 304.983 162.151 306.551 161.647 307.652C161.162 308.735 160.201 309.276 158.763 309.276C157.307 309.276 156.327 308.735 155.823 307.652C155.338 306.551 155.095 304.983 155.095 302.948C155.095 300.932 155.338 299.383 155.823 298.3C156.327 297.199 157.307 296.648 158.763 296.648C160.201 296.648 161.162 297.199 161.647 298.3C162.151 299.383 162.403 300.932 162.403 302.948Z" fill="white"/>
<rect x="0.5" y="0.5" width="219" height="343" rx="7.5" stroke="url(#paint1_linear_2_1486)"/>
<defs>
<linearGradient id="paint0_linear_2_1486" x1="6.28572" y1="-3.18373e-06" x2="204.917" y2="361.696" gradientUnits="userSpaceOnUse">
<stop stop-color="white" stop-opacity="0.6"/>
<stop offset="1" stop-color="white" stop-opacity="0.1"/>
</linearGradient>
<linearGradient id="paint1_linear_2_1486" x1="0" y1="0" x2="208.253" y2="357.638" gradientUnits="userSpaceOnUse">
<stop stop-color="white" stop-opacity="0.6"/>
<stop offset="0.989583" stop-color="white" stop-opacity="0.1"/>
</linearGradient>
</defs>
</svg>
